<svg width="96" height="49" viewBox="0 0 96 49" fill="none" xmlns="http://www.w3.org/2000/svg">
<path fill-rule="evenodd" clip-rule="evenodd" d="M86.65 1.81C85.48 1.31 86.44 0.589999 84.77 0.919999C84.31 2.28 85.89 1.21 82.65 2.97C81.32 3.69 79.82 2.47 80.27 4.78C81.45 5.04 82.34 4.81 83.09 5.72C83.71 6.49 83.88 7.54 84.99 6.75C85.4 5.63 84.8 4.64 86.36 4.71C87.15 6 86.09 6 87.73 6.71C91.91 8.52 92.36 8.12 93.6 3.62C92.03 3.64 91.16 3.38 89.94 2.82C88.55 2.18 88.04 2.25 87.75 0.779999C87.28 1.33 87.35 1.45 86.65 1.81Z" fill="#8DC74C"/>
<path fill-rule="evenodd" clip-rule="evenodd" d="M84.15 9.45C83.32 9.15 83.84 9.11 83.32 8.81C82.85 8.55 82.87 8.54 82.27 8.78C81.84 9.77 82.82 9.21 81.9 10.11C79.53 12.44 77.83 10.63 78.15 13.2C79.1 13.39 79.7 13.12 80.58 13.44C81.77 13.88 81.42 14.52 82.07 14.89C82.84 15.34 83.23 14.66 83.25 13.91C83.27 12.79 83.07 12.39 84.39 12.41C85.12 13.56 84.27 13.72 85.9 14.17C91.25 15.66 90.42 13.96 91.32 10.3C90.02 10.49 88.81 10.35 87.56 10.01C85.96 9.57 85.7 9.64 85.08 8.31C84.76 9.05 84.75 9.18 84.15 9.45Z" fill="#8DC74C"/>
<path fill-rule="evenodd" clip-rule="evenodd" d="M77.64 22.22C78.64 22.36 79.25 21.78 80.46 22.12C81.61 22.44 81.73 23.85 82.62 22.94C83.68 21.97 81.6 21.13 83.52 20.35C84.55 20.82 83.93 20.96 84.57 21.69C86.15 21.91 88.35 22.27 89.45 21.43C90.49 20.63 90.04 18.51 90.18 17.09C88.28 17.53 85.02 18.1 83.73 16.25C83.38 16.8 83.5 16.99 83.01 17.49C82.09 17.44 82.16 16.43 81.16 17.07C80.22 17.68 81.75 17.52 80.82 18.62C78.88 20.93 78.85 20.41 77.6 20.65L77.64 22.22Z" fill="#8DC74C"/>
<path fill-rule="evenodd" clip-rule="evenodd" d="M82.45 27.14C81.17 28.85 81.73 28.43 80.36 28.72C80.27 30.91 80.81 29.89 82.11 29.71C83.59 29.52 83.17 30.34 84.52 30.45C85.54 29.32 84.13 29.63 84.8 28.03C86.57 27.94 84.73 28.82 86.83 28.94C91.56 29.2 90.55 26.91 90.26 24.6C89.09 25.04 85.64 25.99 84.98 24.5C84.31 25.58 85.24 25.85 83.79 25.45C83.76 25.45 83.39 24.97 82.9 25.48C82.39 26.02 83.37 25.9 82.45 27.14Z" fill="#8DC74C"/>
<path fill-rule="evenodd" clip-rule="evenodd" d="M84.15 32.59C83.77 34.06 84.95 32.4 83.77 34.71C83.04 36.14 83.62 35.62 82.21 36.26L82.4 37.47C83.56 37.61 83.44 36.9 84.61 36.83C85.81 36.77 85.62 37.6 86.63 37.18C87.54 35.86 85.78 36.4 86.57 34.81C88.04 34.41 86.84 35.64 88.59 35.39C90.25 35.16 92.46 34.7 91.92 32.74C91.79 32.25 91.48 31 91.23 30.56C90.28 31.08 87.28 32.67 85.98 31.42L85.6 32.57C85.03 32.51 84.78 32.24 84.15 32.59Z" fill="#8DC74C"/>
<path fill-rule="evenodd" clip-rule="evenodd" d="M87.68 38.28L86.19 38.34C86 39.44 86.95 38.41 86.09 40.58C85.59 41.81 85.52 41.45 84.77 42.18L85.15 43.2C86.27 43.08 85.95 42.61 86.91 42.42C88.28 42.14 87.83 42.94 89.05 42.49C89.37 41.17 88.12 41.56 88.72 40.31C89.39 39.68 89.9 41.72 92.88 39.86C94.33 38.96 93.41 37.11 92.69 35.9C92.03 36.31 88.63 38.46 87.83 37.11L87.68 38.28Z" fill="#8DC74C"/>
<path fill-rule="evenodd" clip-rule="evenodd" d="M91.99 47.34C92.29 46.02 91.89 46.72 91.58 45.97C91.39 45.5 91.22 45.15 91.97 45.2C92.76 45.25 92.06 46.05 94.45 44.98C96.75 43.95 95.9 42.61 94.78 40.94C94.16 41.42 91.51 43.49 90.49 42.43L90.38 43.61C89.76 43.56 89.77 43.43 89.16 43.66C89.02 45.3 89.52 43.55 89.38 44.95C89.17 47.12 87.34 47.23 88.73 48.22C89.41 47.94 89.44 47.55 90.14 47.34C91.05 47.08 90.93 47.55 91.99 47.34Z" fill="#8DC74C"/>
<path d="M25.75 31.34C25.67 31.62 25.57 31.88 25.45 32.11C25.33 32.35 25.22 32.55 25.11 32.71C25 32.88 24.9 33.01 24.81 33.1C24.73 33.19 24.69 33.25 24.69 33.25C24.67 33.42 24.66 33.61 24.64 33.84C24.63 34.06 24.62 34.29 24.62 34.52C24.61 34.75 24.61 34.97 24.62 35.18C24.62 35.38 24.62 35.55 24.62 35.67C24.63 35.8 24.65 35.93 24.67 36.04C24.7 36.15 24.73 36.23 24.77 36.27C24.81 36.31 24.86 36.31 24.92 36.27C24.99 36.23 25.06 36.12 25.15 35.95C25.24 35.76 25.32 35.54 25.4 35.27C25.47 35.01 25.54 34.77 25.62 34.56C25.64 34.51 25.67 34.49 25.73 34.48C25.79 34.47 25.82 34.52 25.8 34.62C25.76 34.86 25.68 35.12 25.58 35.4C25.48 35.68 25.39 35.91 25.3 36.08C25.17 36.33 25.04 36.49 24.9 36.54C24.77 36.6 24.64 36.59 24.53 36.51C24.42 36.43 24.33 36.3 24.25 36.12C24.17 35.94 24.12 35.74 24.11 35.51C24.1 35.54 24.08 35.6 24.05 35.7C24.03 35.8 23.98 35.9 23.92 36.01C23.86 36.12 23.79 36.22 23.71 36.31C23.63 36.4 23.53 36.45 23.42 36.46C23.23 36.49 23.06 36.44 22.92 36.34C22.79 36.23 22.68 36.09 22.61 35.9C22.54 35.71 22.5 35.5 22.48 35.27C22.47 35.03 22.49 34.8 22.54 34.56C22.61 34.25 22.72 33.98 22.87 33.74C23.02 33.5 23.22 33.33 23.47 33.22C23.57 33.18 23.68 33.18 23.82 33.2C23.95 33.22 24.04 33.25 24.07 33.28C24.13 32.88 24.2 32.49 24.29 32.11C24.38 31.73 24.49 31.4 24.62 31.12C24.74 30.83 24.88 30.61 25.03 30.46C25.17 30.3 25.34 30.25 25.52 30.29C25.69 30.33 25.79 30.46 25.81 30.66C25.84 30.86 25.82 31.08 25.75 31.34ZM24.74 32.9C24.85 32.74 24.94 32.61 25.02 32.48C25.1 32.36 25.16 32.23 25.22 32.11C25.28 31.99 25.34 31.86 25.39 31.73C25.44 31.61 25.49 31.46 25.54 31.29C25.6 31.09 25.63 30.92 25.63 30.76C25.63 30.6 25.59 30.5 25.5 30.47C25.44 30.45 25.39 30.5 25.33 30.6C25.27 30.7 25.21 30.84 25.15 31.01C25.09 31.18 25.03 31.36 24.97 31.57C24.92 31.77 24.87 31.97 24.83 32.16C24.8 32.34 24.77 32.51 24.75 32.64C24.73 32.78 24.73 32.86 24.74 32.9ZM24.05 33.65C23.93 33.55 23.82 33.51 23.72 33.54C23.61 33.57 23.52 33.65 23.44 33.78C23.37 33.88 23.31 34.02 23.27 34.21C23.23 34.39 23.2 34.58 23.18 34.78C23.16 34.98 23.16 35.18 23.17 35.37C23.19 35.57 23.21 35.73 23.24 35.87C23.28 36 23.32 36.09 23.38 36.13C23.44 36.17 23.52 36.14 23.6 36.04C23.71 35.92 23.8 35.75 23.87 35.52C23.94 35.3 23.99 35.08 24.02 34.89C24.02 34.69 24.02 34.49 24.02 34.29C24.02 34.08 24.03 33.87 24.05 33.65ZM26.51 33.78C26.45 33.88 26.39 34.02 26.34 34.21C26.29 34.39 26.26 34.58 26.25 34.78C26.23 34.98 26.23 35.18 26.24 35.37C26.25 35.57 26.28 35.73 26.32 35.87C26.35 36 26.4 36.09 26.46 36.13C26.52 36.17 26.59 36.14 26.68 36.04C26.76 35.95 26.82 35.84 26.88 35.7C26.93 35.56 26.98 35.41 27.02 35.25C27.07 35.1 27.1 34.94 27.13 34.8C27.15 34.65 27.17 34.54 27.18 34.45C27.2 34.28 27.22 34.15 27.24 34.07C27.26 33.98 27.27 33.91 27.27 33.85C27.27 33.8 27.25 33.77 27.23 33.74C27.2 33.71 27.16 33.68 27.1 33.62C27.01 33.55 26.9 33.52 26.79 33.55C26.68 33.58 26.59 33.66 26.51 33.78ZM26.5 36.46C26.3 36.49 26.13 36.44 25.99 36.34C25.85 36.23 25.75 36.09 25.68 35.9C25.6 35.72 25.56 35.51 25.56 35.27C25.55 35.03 25.57 34.8 25.62 34.56C25.69 34.25 25.8 33.97 25.96 33.71C26.13 33.45 26.33 33.27 26.59 33.18C26.73 33.13 26.87 33.12 27.01 33.16C27.16 33.21 27.28 33.28 27.37 33.39C27.39 33.37 27.44 33.34 27.5 33.32C27.56 33.29 27.62 33.28 27.68 33.27C27.73 33.26 27.79 33.26 27.83 33.29C27.88 33.31 27.91 33.36 27.91 33.43C27.91 33.58 27.91 33.74 27.89 33.92C27.86 34.11 27.84 34.3 27.81 34.5C27.78 34.7 27.75 34.9 27.73 35.11C27.71 35.31 27.7 35.5 27.7 35.67C27.71 35.8 27.72 35.93 27.75 36.04C27.77 36.15 27.8 36.23 27.83 36.27C27.87 36.31 27.92 36.31 27.99 36.27C28.05 36.23 28.13 36.11 28.21 35.94C28.31 35.76 28.39 35.53 28.47 35.27C28.54 35 28.62 34.76 28.68 34.56C28.7 34.5 28.74 34.47 28.81 34.47C28.87 34.47 28.89 34.52 28.88 34.63C28.85 34.75 28.82 34.88 28.77 35.01C28.73 35.14 28.69 35.27 28.65 35.4C28.6 35.53 28.56 35.65 28.51 35.77C28.45 35.89 28.41 35.99 28.38 36.06C28.26 36.33 28.13 36.49 27.99 36.55C27.86 36.61 27.73 36.6 27.62 36.52C27.5 36.44 27.4 36.3 27.32 36.11C27.24 35.93 27.2 35.72 27.19 35.5C27.18 35.53 27.16 35.59 27.13 35.69C27.09 35.8 27.05 35.9 26.99 36.01C26.93 36.11 26.86 36.21 26.77 36.31C26.69 36.4 26.6 36.45 26.5 36.46ZM31.15 36.2C31.02 36 30.94 35.76 30.92 35.48C30.89 35.2 30.91 34.91 30.97 34.63C31.03 34.34 31.13 34.07 31.26 33.82C31.39 33.56 31.54 33.35 31.71 33.19C31.9 33.05 32.09 32.97 32.28 32.95C32.47 32.94 32.63 32.97 32.76 33.05C32.9 33.13 32.98 33.24 33.03 33.38C33.07 33.53 33.03 33.68 32.92 33.84C32.91 33.88 32.87 33.89 32.82 33.89C32.77 33.89 32.76 33.85 32.8 33.78C32.84 33.65 32.85 33.54 32.82 33.45C32.8 33.35 32.75 33.28 32.69 33.24C32.62 33.2 32.55 33.18 32.46 33.2C32.38 33.21 32.3 33.26 32.22 33.36C32.11 33.49 32 33.69 31.9 33.94C31.79 34.19 31.7 34.45 31.64 34.72C31.58 35 31.54 35.26 31.53 35.52C31.51 35.78 31.54 35.99 31.61 36.14C31.66 36.24 31.73 36.32 31.81 36.36C31.89 36.4 31.97 36.42 32.07 36.42C32.16 36.41 32.25 36.39 32.34 36.34C32.43 36.3 32.51 36.25 32.58 36.18C32.82 35.93 33.01 35.68 33.17 35.44C33.32 35.19 33.47 34.9 33.63 34.56C33.63 34.52 33.66 34.49 33.69 34.47C33.72 34.44 33.76 34.43 33.79 34.43C33.82 34.43 33.83 34.44 33.84 34.47C33.85 34.5 33.84 34.56 33.82 34.63C33.69 34.89 33.58 35.1 33.5 35.27C33.41 35.43 33.33 35.57 33.26 35.69C33.19 35.8 33.12 35.91 33.04 36C32.96 36.09 32.87 36.2 32.76 36.31C32.61 36.46 32.46 36.56 32.3 36.61C32.15 36.65 31.99 36.67 31.84 36.64C31.7 36.62 31.56 36.57 31.44 36.49C31.32 36.41 31.23 36.32 31.15 36.2ZM34.78 33.36C34.66 33.36 34.56 33.41 34.48 33.51C34.41 33.61 34.36 33.71 34.34 33.8C34.38 33.84 34.4 33.88 34.41 33.92C34.37 33.99 34.35 34.05 34.34 34.11C34.34 34.13 34.34 34.15 34.35 34.17C34.35 34.19 34.35 34.21 34.35 34.22C34.39 34.35 34.44 34.48 34.51 34.61C34.58 34.74 34.67 34.86 34.8 34.96C34.93 35.06 35.07 35.11 35.22 35.13C35.24 35.05 35.25 34.91 35.25 34.71C35.26 34.51 35.25 34.32 35.22 34.12C35.2 33.92 35.15 33.74 35.08 33.59C35.01 33.43 34.91 33.36 34.78 33.36ZM35.71 35.09C35.8 35.06 35.9 35.01 35.99 34.94C36.15 34.82 36.27 34.68 36.35 34.53C36.43 34.38 36.49 34.28 36.51 34.22L36.69 34.28C36.67 34.34 36.62 34.47 36.54 34.64C36.45 34.81 36.32 34.97 36.13 35.12C35.98 35.22 35.82 35.29 35.63 35.34C35.53 35.65 35.39 35.93 35.22 36.16C35.05 36.39 34.88 36.52 34.7 36.54C34.43 36.57 34.2 36.49 34.02 36.31C33.84 36.12 33.72 35.88 33.65 35.59C33.57 35.3 33.56 34.99 33.6 34.66C33.64 34.33 33.75 34.03 33.92 33.78C33.95 33.74 34.01 33.73 34.12 33.73C34.19 33.51 34.3 33.36 34.44 33.27C34.59 33.18 34.76 33.14 34.95 33.14C35.12 33.15 35.27 33.19 35.4 33.27C35.52 33.34 35.62 33.48 35.7 33.66C35.78 33.86 35.82 34.08 35.82 34.33C35.81 34.58 35.78 34.84 35.71 35.09ZM35.17 35.35C34.98 35.31 34.82 35.25 34.69 35.16C34.56 35.06 34.44 34.91 34.32 34.71C34.3 34.68 34.29 34.66 34.28 34.64C34.28 34.62 34.27 34.6 34.25 34.57C34.24 34.79 34.24 35.02 34.25 35.27C34.27 35.51 34.3 35.72 34.35 35.89C34.41 36.07 34.47 36.19 34.54 36.26C34.61 36.32 34.69 36.3 34.79 36.18C34.87 36.07 34.95 35.94 35.01 35.8C35.08 35.66 35.13 35.51 35.17 35.35ZM37.01 33.31C37.15 33.2 37.27 33.02 37.39 32.74C37.51 32.47 37.6 32.18 37.66 31.88C37.72 31.58 37.74 31.3 37.72 31.03C37.7 30.77 37.62 30.6 37.48 30.52C37.41 30.56 37.34 30.64 37.29 30.77C37.24 30.9 37.2 31.06 37.16 31.24C37.13 31.43 37.1 31.63 37.08 31.84C37.06 32.06 37.04 32.27 37.03 32.46C37.02 32.66 37.01 32.83 37.01 32.99C37.01 33.14 37.01 33.25 37.01 33.31ZM37.02 36.46C36.83 36.32 36.68 36.07 36.57 35.73C36.46 35.38 36.39 34.99 36.35 34.56C36.31 34.2 36.3 33.83 36.31 33.45C36.32 33.07 36.34 32.71 36.39 32.36C36.44 32.01 36.5 31.7 36.58 31.42C36.65 31.13 36.74 30.91 36.84 30.75C36.99 30.53 37.13 30.39 37.25 30.34C37.38 30.28 37.5 30.28 37.6 30.34C37.79 30.45 37.91 30.64 37.94 30.9C37.98 31.17 37.97 31.45 37.92 31.76C37.89 31.9 37.85 32.06 37.8 32.24C37.75 32.41 37.69 32.58 37.61 32.75C37.53 32.92 37.45 33.07 37.35 33.22C37.25 33.37 37.14 33.5 37.01 33.6C36.97 33.68 36.95 33.84 36.95 34.09C36.95 34.34 36.96 34.61 36.98 34.9C37 35.19 37.03 35.46 37.07 35.71C37.12 35.95 37.16 36.11 37.21 36.19C37.31 36.32 37.41 36.37 37.51 36.33C37.61 36.3 37.7 36.22 37.78 36.1C37.83 36.04 37.88 35.95 37.92 35.83C37.97 35.71 38.02 35.58 38.06 35.44C38.1 35.3 38.14 35.16 38.19 35C38.23 34.85 38.27 34.7 38.31 34.56C38.36 34.38 38.42 34.31 38.48 34.35C38.54 34.38 38.55 34.47 38.52 34.6C38.45 34.84 38.38 35.11 38.3 35.41C38.22 35.7 38.12 35.96 37.99 36.18C37.88 36.37 37.75 36.5 37.59 36.57C37.43 36.65 37.24 36.61 37.02 36.46ZM41.16 35.94C41.25 35.76 41.34 35.53 41.42 35.27C41.49 35 41.57 34.76 41.63 34.56C41.65 34.5 41.69 34.47 41.75 34.47C41.82 34.47 41.84 34.52 41.82 34.63C41.8 34.75 41.77 34.88 41.73 35.01C41.69 35.14 41.65 35.27 41.6 35.41C41.55 35.54 41.51 35.66 41.46 35.78C41.41 35.9 41.37 36 41.34 36.08C41.28 36.2 41.22 36.3 41.15 36.4C41.09 36.5 40.99 36.56 40.84 36.59C40.68 36.62 40.54 36.58 40.42 36.47C40.3 36.36 40.21 36.22 40.13 36.04C40.06 35.87 40.01 35.69 39.99 35.5C39.97 35.3 39.97 35.14 40 35.02C39.93 35.26 39.86 35.47 39.78 35.62C39.69 35.78 39.63 35.9 39.59 35.99C39.49 36.21 39.38 36.36 39.25 36.45C39.13 36.53 39.01 36.56 38.89 36.54C38.77 36.51 38.66 36.43 38.56 36.3C38.46 36.17 38.39 35.99 38.35 35.76C38.33 35.66 38.32 35.49 38.3 35.27C38.28 35.04 38.29 34.8 38.31 34.56C38.35 34.28 38.41 34.04 38.49 33.82C38.58 33.59 38.67 33.48 38.76 33.46C38.85 33.44 38.91 33.45 38.95 33.47C38.99 33.5 39.03 33.54 39.05 33.59C39.07 33.64 39.08 33.7 39.07 33.77C39.07 33.84 39.06 33.91 39.05 33.97C39.04 34.15 39.02 34.31 39 34.45C38.98 34.59 38.96 34.73 38.94 34.86C38.92 34.99 38.91 35.13 38.9 35.27C38.89 35.42 38.89 35.58 38.9 35.77C38.91 35.98 38.93 36.13 38.96 36.2C39 36.27 39.04 36.3 39.09 36.27C39.14 36.25 39.2 36.19 39.26 36.1C39.32 36 39.38 35.88 39.44 35.76C39.52 35.56 39.59 35.37 39.65 35.18C39.71 35 39.76 34.81 39.81 34.63C39.85 34.44 39.89 34.26 39.93 34.08C39.98 33.89 40.03 33.71 40.09 33.51C40.11 33.42 40.16 33.37 40.22 33.34C40.29 33.31 40.35 33.29 40.42 33.29C40.49 33.29 40.55 33.31 40.61 33.33C40.66 33.36 40.69 33.39 40.7 33.42C40.74 33.68 40.74 33.98 40.69 34.3C40.65 34.63 40.62 34.92 40.6 35.2C40.6 35.22 40.6 35.3 40.59 35.43C40.59 35.55 40.59 35.68 40.6 35.82C40.61 35.96 40.63 36.08 40.66 36.19C40.7 36.29 40.76 36.34 40.84 36.32C40.92 36.32 40.98 36.27 41.04 36.17C41.09 36.06 41.14 35.99 41.16 35.94ZM41.84 33.31C41.87 33.22 41.92 33.16 41.97 33.11C42.03 33.07 42.08 33.05 42.14 33.06C42.19 33.07 42.24 33.1 42.28 33.15C42.32 33.19 42.34 33.26 42.35 33.36C42.33 33.82 42.3 34.28 42.25 34.72C42.21 35.15 42.18 35.6 42.18 36.06C42.18 35.96 42.2 35.81 42.23 35.61C42.26 35.41 42.3 35.19 42.35 34.95C42.4 34.71 42.46 34.47 42.53 34.22C42.61 33.98 42.69 33.75 42.78 33.55C42.88 33.34 42.98 33.18 43.09 33.05C43.2 32.92 43.32 32.86 43.45 32.86C43.58 32.87 43.68 32.92 43.75 33.02C43.81 33.12 43.85 33.22 43.87 33.34C43.9 33.46 43.9 33.58 43.89 33.71C43.89 33.83 43.88 33.92 43.88 33.98C43.86 34.21 43.83 34.45 43.79 34.69C43.76 34.93 43.73 35.17 43.71 35.4C43.71 35.49 43.71 35.62 43.7 35.77C43.69 35.92 43.7 36.06 43.71 36.18C43.74 36.3 43.77 36.35 43.82 36.34C43.86 36.33 43.91 36.27 43.96 36.18C44.02 36.09 44.08 35.97 44.14 35.82C44.2 35.68 44.25 35.54 44.3 35.4C44.34 35.26 44.38 35.15 44.42 35.05C44.45 34.95 44.47 34.9 44.47 34.89C44.49 34.82 44.5 34.76 44.52 34.7C44.54 34.65 44.55 34.6 44.57 34.56C44.59 34.49 44.63 34.45 44.71 34.44C44.79 34.43 44.81 34.47 44.79 34.56C44.75 34.68 44.69 34.85 44.63 35.05C44.56 35.25 44.5 35.45 44.43 35.65C44.36 35.85 44.29 36.03 44.21 36.19C44.14 36.34 44.06 36.45 44 36.5C43.92 36.56 43.84 36.59 43.77 36.59C43.69 36.59 43.62 36.57 43.56 36.54C43.49 36.51 43.43 36.47 43.38 36.41C43.33 36.35 43.29 36.29 43.27 36.22C43.19 36.03 43.14 35.81 43.13 35.55C43.11 35.3 43.11 35.03 43.13 34.76C43.14 34.49 43.18 34.21 43.22 33.94C43.27 33.66 43.32 33.41 43.37 33.19C43.39 33.12 43.39 33.08 43.38 33.08C43.37 33.07 43.34 33.09 43.28 33.15C43.17 33.25 43.07 33.39 42.98 33.59C42.89 33.78 42.81 33.99 42.74 34.22C42.68 34.45 42.62 34.7 42.57 34.95C42.51 35.2 42.47 35.43 42.43 35.63C42.38 35.83 42.34 36.01 42.31 36.15C42.28 36.3 42.25 36.38 42.22 36.4C42.15 36.44 42.09 36.43 42.04 36.38C41.99 36.33 41.95 36.27 41.91 36.19C41.87 36.1 41.84 36.02 41.81 35.94C41.79 35.85 41.77 35.79 41.76 35.76C41.71 35.57 41.67 35.37 41.65 35.16C41.63 34.95 41.62 34.74 41.63 34.53C41.64 34.31 41.67 34.1 41.7 33.89C41.74 33.68 41.79 33.48 41.84 33.31ZM45.46 33.78C45.4 33.88 45.34 34.02 45.29 34.21C45.25 34.39 45.21 34.58 45.2 34.78C45.18 34.98 45.18 35.18 45.19 35.37C45.2 35.57 45.23 35.73 45.27 35.87C45.3 36 45.35 36.09 45.41 36.13C45.47 36.17 45.55 36.14 45.63 36.04C45.71 35.95 45.77 35.84 45.83 35.7C45.88 35.56 45.93 35.41 45.98 35.25C46.02 35.1 46.05 34.94 46.08 34.8C46.1 34.65 46.12 34.54 46.13 34.45C46.15 34.28 46.18 34.15 46.19 34.07C46.21 33.98 46.22 33.91 46.22 33.85C46.22 33.8 46.21 33.77 46.18 33.74C46.15 33.71 46.11 33.68 46.05 33.62C45.96 33.55 45.86 33.52 45.75 33.55C45.63 33.58 45.54 33.66 45.46 33.78ZM45.45 36.46C45.25 36.49 45.08 36.44 44.94 36.34C44.8 36.23 44.7 36.09 44.63 35.9C44.56 35.72 44.52 35.51 44.51 35.27C44.5 35.03 44.52 34.8 44.57 34.56C44.64 34.25 44.75 33.97 44.92 33.71C45.08 33.45 45.29 33.27 45.54 33.18C45.68 33.13 45.82 33.12 45.96 33.16C46.11 33.21 46.23 33.28 46.32 33.39C46.35 33.37 46.39 33.34 46.45 33.32C46.51 33.29 46.57 33.28 46.63 33.27C46.69 33.26 46.74 33.26 46.79 33.29C46.83 33.31 46.86 33.36 46.86 33.43C46.87 33.58 46.86 33.74 46.84 33.92C46.82 34.11 46.79 34.3 46.76 34.5C46.73 34.7 46.71 34.9 46.68 35.11C46.66 35.31 46.65 35.5 46.65 35.67C46.66 35.8 46.68 35.93 46.7 36.04C46.72 36.15 46.75 36.23 46.79 36.27C46.82 36.31 46.88 36.31 46.94 36.27C47 36.23 47.08 36.11 47.16 35.94C47.26 35.76 47.34 35.53 47.42 35.27C47.49 35 47.57 34.76 47.64 34.56C47.65 34.5 47.69 34.47 47.76 34.47C47.82 34.47 47.84 34.52 47.83 34.63C47.8 34.75 47.77 34.88 47.72 35.01C47.68 35.14 47.64 35.27 47.6 35.4C47.55 35.53 47.51 35.65 47.46 35.77C47.41 35.89 47.36 35.99 47.33 36.06C47.21 36.33 47.08 36.49 46.95 36.55C46.81 36.61 46.68 36.6 46.57 36.52C46.45 36.44 46.36 36.3 46.28 36.11C46.19 35.93 46.15 35.72 46.14 35.5C46.13 35.53 46.11 35.59 46.08 35.69C46.04 35.8 46 35.9 45.94 36.01C45.88 36.11 45.81 36.21 45.73 36.31C45.65 36.4 45.55 36.45 45.45 36.46Z" fill="#373435"/>
<path d="M7.40003 36.18C7.37003 36.31 7.41003 36.4 7.51003 36.46C7.62003 36.51 7.71003 36.51 7.79003 36.44C7.85003 36.38 7.91003 36.3 7.97003 36.2C8.03003 36.1 8.08003 35.99 8.13003 35.87C8.17003 35.76 8.20003 35.65 8.22003 35.54C8.24003 35.43 8.25003 35.34 8.24003 35.27C8.17003 35.31 8.09003 35.37 8.00003 35.44C7.92003 35.51 7.83003 35.59 7.74003 35.67C7.66003 35.76 7.58003 35.85 7.52003 35.94C7.46003 36.02 7.42003 36.11 7.40003 36.18ZM9.57003 34.45L9.47003 34.55C9.33003 34.67 9.18003 34.77 9.00003 34.86C8.83003 34.95 8.67003 35.03 8.53003 35.1C8.65003 35.35 8.70003 35.61 8.69003 35.88C8.68003 36.07 8.63003 36.25 8.55003 36.41C8.47003 36.58 8.36003 36.69 8.20003 36.76C8.12003 36.8 8.01003 36.81 7.89003 36.8C7.77003 36.78 7.65003 36.74 7.53003 36.68C7.42003 36.62 7.32003 36.55 7.25003 36.45C7.18003 36.36 7.16003 36.25 7.18003 36.12C7.21003 36.01 7.26003 35.9 7.33003 35.8C7.41003 35.69 7.50003 35.59 7.59003 35.5C7.68003 35.4 7.78003 35.32 7.89003 35.24C8.00003 35.16 8.09003 35.09 8.18003 35.04C8.11003 34.95 8.04003 34.88 7.98003 34.83C7.92003 34.78 7.85003 34.74 7.77003 34.7C7.69003 34.66 7.61003 34.62 7.53003 34.58C7.45003 34.53 7.37003 34.48 7.28003 34.41C7.14003 34.3 7.06003 34.16 7.05003 34C7.04003 33.84 7.06003 33.69 7.10003 33.57C7.14003 33.46 7.20003 33.34 7.30003 33.22C7.39003 33.1 7.50003 33.01 7.62003 32.93C7.73003 32.86 7.86003 32.82 7.99003 32.82C8.11003 32.82 8.23003 32.86 8.33003 32.97C8.42003 33.05 8.48003 33.15 8.53003 33.27C8.58003 33.38 8.58003 33.48 8.53003 33.55C8.52003 33.58 8.48003 33.6 8.43003 33.61C8.38003 33.62 8.35003 33.58 8.34003 33.48C8.33003 33.32 8.30003 33.21 8.23003 33.17C8.17003 33.13 8.10003 33.13 8.02003 33.16C7.94003 33.2 7.86003 33.27 7.79003 33.36C7.72003 33.45 7.66003 33.54 7.63003 33.64C7.58003 33.8 7.58003 33.93 7.64003 34.03C7.70003 34.14 7.78003 34.24 7.88003 34.33C7.97003 34.43 8.08003 34.52 8.19003 34.61C8.30003 34.7 8.39003 34.79 8.45003 34.89C8.55003 34.84 8.68003 34.76 8.84003 34.68C9.00003 34.6 9.15003 34.51 9.28003 34.41L9.39003 34.29L9.57003 34.45ZM10.17 33.63C10.1 33.73 10.04 33.88 10 34.06C9.95003 34.24 9.92003 34.43 9.90003 34.63C9.88003 34.83 9.88003 35.03 9.89003 35.23C9.91003 35.42 9.93003 35.59 9.97003 35.72C10.01 35.85 10.06 35.94 10.12 35.98C10.18 36.02 10.25 35.99 10.34 35.89C10.41 35.81 10.48 35.69 10.53 35.55C10.59 35.41 10.64 35.26 10.68 35.11C10.72 34.95 10.76 34.8 10.78 34.65C10.81 34.51 10.83 34.39 10.83 34.31C10.86 34.14 10.88 34.01 10.9 33.92C10.91 33.83 10.92 33.76 10.92 33.71C10.92 33.66 10.91 33.62 10.88 33.59C10.86 33.57 10.82 33.53 10.76 33.48C10.66 33.4 10.56 33.38 10.45 33.41C10.34 33.44 10.25 33.51 10.17 33.63ZM10.16 36.31C9.95003 36.34 9.78003 36.3 9.65003 36.19C9.51003 36.08 9.41003 35.94 9.33003 35.76C9.26003 35.57 9.22003 35.36 9.21003 35.12C9.20003 34.89 9.22003 34.65 9.28003 34.41C9.34003 34.1 9.46003 33.82 9.62003 33.56C9.78003 33.3 9.99003 33.12 10.25 33.03C10.38 32.98 10.52 32.97 10.67 33.02C10.81 33.06 10.93 33.14 11.03 33.25C11.05 33.22 11.09 33.2 11.15 33.17C11.21 33.15 11.27 33.13 11.33 33.12C11.39 33.11 11.44 33.12 11.49 33.14C11.54 33.16 11.56 33.21 11.56 33.29C11.57 33.43 11.56 33.59 11.54 33.78C11.52 33.96 11.5 34.15 11.47 34.35C11.44 34.55 11.41 34.75 11.39 34.96C11.37 35.16 11.36 35.35 11.36 35.52C11.37 35.66 11.38 35.78 11.4 35.89C11.42 36 11.45 36.08 11.49 36.12C11.53 36.16 11.58 36.16 11.64 36.12C11.71 36.08 11.78 35.97 11.87 35.79C11.96 35.61 12.05 35.39 12.12 35.12C12.2 34.85 12.27 34.61 12.34 34.41C12.36 34.35 12.4 34.32 12.46 34.32C12.53 34.32 12.55 34.38 12.53 34.49C12.51 34.61 12.47 34.73 12.43 34.86C12.39 34.99 12.34 35.12 12.3 35.25C12.26 35.38 12.21 35.5 12.16 35.62C12.11 35.74 12.07 35.84 12.03 35.92C11.91 36.18 11.79 36.34 11.65 36.4C11.51 36.46 11.39 36.45 11.27 36.37C11.16 36.29 11.06 36.15 10.98 35.97C10.9 35.78 10.85 35.58 10.85 35.35C10.84 35.38 10.82 35.44 10.78 35.55C10.75 35.65 10.7 35.75 10.64 35.86C10.58 35.97 10.51 36.07 10.43 36.16C10.35 36.25 10.26 36.3 10.16 36.31ZM14.09 30.43C14.11 30.43 14.14 30.43 14.19 30.43C14.23 30.44 14.28 30.45 14.32 30.46C14.36 30.48 14.39 30.5 14.42 30.53C14.44 30.55 14.43 30.58 14.41 30.62C14.37 30.67 14.3 30.75 14.22 30.87C14.13 30.99 14.04 31.1 13.95 31.2C13.93 31.23 13.89 31.24 13.82 31.24C13.74 31.23 13.67 31.22 13.6 31.2C13.53 31.19 13.46 31.16 13.41 31.13C13.36 31.1 13.35 31.08 13.37 31.06L14.09 30.43ZM15.19 35.79C15.28 35.61 15.37 35.39 15.44 35.12C15.52 34.85 15.59 34.61 15.66 34.41C15.68 34.35 15.72 34.32 15.78 34.32C15.85 34.32 15.87 34.38 15.85 34.49C15.83 34.61 15.79 34.73 15.76 34.86C15.72 34.99 15.68 35.13 15.63 35.26C15.58 35.39 15.54 35.52 15.49 35.64C15.44 35.75 15.4 35.85 15.37 35.93C15.31 36.05 15.25 36.16 15.18 36.25C15.12 36.35 15.01 36.41 14.87 36.44C14.71 36.47 14.57 36.44 14.45 36.33C14.33 36.21 14.23 36.07 14.16 35.9C14.09 35.72 14.04 35.54 14.02 35.35C14 35.16 14 35 14.03 34.87C13.96 35.12 13.88 35.32 13.8 35.48C13.72 35.63 13.66 35.75 13.62 35.84C13.52 36.06 13.4 36.21 13.28 36.3C13.16 36.38 13.03 36.41 12.92 36.39C12.8 36.36 12.69 36.28 12.59 36.15C12.49 36.02 12.42 35.84 12.38 35.61C12.36 35.51 12.34 35.34 12.33 35.12C12.31 34.89 12.31 34.66 12.34 34.41C12.37 34.14 12.43 33.89 12.52 33.67C12.6 33.45 12.69 33.33 12.79 33.31C12.87 33.29 12.94 33.3 12.98 33.32C13.02 33.35 13.05 33.39 13.07 33.44C13.1 33.49 13.1 33.55 13.1 33.62C13.1 33.7 13.09 33.76 13.08 33.82C13.06 34 13.04 34.16 13.02 34.3C13 34.44 12.98 34.58 12.97 34.71C12.95 34.84 12.94 34.98 12.93 35.12C12.92 35.27 12.92 35.44 12.93 35.62C12.94 35.84 12.96 35.98 12.99 36.05C13.03 36.12 13.07 36.15 13.12 36.13C13.17 36.11 13.23 36.05 13.29 35.95C13.34 35.85 13.4 35.74 13.46 35.61C13.55 35.41 13.62 35.22 13.68 35.04C13.74 34.85 13.79 34.66 13.83 34.48C13.88 34.3 13.92 34.11 13.96 33.93C14 33.75 14.06 33.56 14.12 33.36C14.14 33.28 14.19 33.22 14.25 33.19C14.31 33.16 14.38 33.15 14.45 33.15C14.52 33.15 14.58 33.16 14.63 33.18C14.69 33.21 14.72 33.24 14.73 33.27C14.77 33.54 14.77 33.83 14.72 34.15C14.68 34.48 14.64 34.78 14.63 35.05C14.63 35.07 14.62 35.15 14.62 35.28C14.62 35.41 14.62 35.54 14.63 35.67C14.63 35.81 14.66 35.93 14.69 36.04C14.72 36.14 14.78 36.19 14.87 36.17C14.95 36.17 15.01 36.12 15.07 36.02C15.12 35.92 15.16 35.84 15.19 35.79ZM18.87 31.19C18.79 31.47 18.69 31.73 18.57 31.96C18.45 32.2 18.34 32.4 18.23 32.56C18.12 32.73 18.02 32.86 17.93 32.95C17.85 33.05 17.81 33.1 17.81 33.11C17.79 33.27 17.77 33.46 17.76 33.69C17.75 33.91 17.74 34.14 17.74 34.37C17.73 34.6 17.73 34.82 17.74 35.03C17.74 35.24 17.74 35.4 17.74 35.52C17.75 35.66 17.77 35.78 17.79 35.89C17.82 36 17.85 36.08 17.89 36.12C17.93 36.16 17.98 36.16 18.04 36.12C18.11 36.08 18.18 35.97 18.27 35.8C18.36 35.61 18.44 35.39 18.51 35.12C18.59 34.86 18.66 34.62 18.74 34.41C18.76 34.37 18.79 34.34 18.85 34.33C18.91 34.32 18.93 34.37 18.92 34.47C18.87 34.71 18.8 34.97 18.7 35.25C18.6 35.53 18.5 35.76 18.42 35.93C18.29 36.18 18.16 36.34 18.02 36.4C17.89 36.45 17.76 36.44 17.65 36.36C17.54 36.29 17.45 36.16 17.37 35.97C17.28 35.79 17.24 35.59 17.23 35.37C17.22 35.39 17.2 35.45 17.17 35.55C17.14 35.65 17.1 35.75 17.04 35.87C16.98 35.98 16.91 36.08 16.83 36.17C16.75 36.25 16.65 36.3 16.54 36.31C16.35 36.34 16.18 36.3 16.04 36.19C15.91 36.08 15.8 35.94 15.73 35.75C15.66 35.56 15.62 35.35 15.6 35.12C15.59 34.88 15.61 34.65 15.66 34.41C15.73 34.1 15.84 33.83 15.99 33.59C16.14 33.35 16.34 33.18 16.59 33.07C16.69 33.03 16.8 33.03 16.94 33.05C17.07 33.07 17.16 33.1 17.19 33.13C17.24 32.73 17.32 32.34 17.41 31.96C17.5 31.59 17.61 31.25 17.74 30.97C17.86 30.68 18 30.46 18.14 30.31C18.29 30.16 18.46 30.1 18.64 30.14C18.81 30.19 18.9 30.31 18.93 30.51C18.96 30.71 18.93 30.94 18.87 31.19ZM17.86 32.75C17.97 32.6 18.06 32.46 18.14 32.33C18.21 32.21 18.28 32.09 18.34 31.96C18.4 31.84 18.46 31.72 18.51 31.59C18.56 31.46 18.61 31.31 18.66 31.14C18.72 30.94 18.75 30.77 18.75 30.61C18.75 30.45 18.71 30.36 18.62 30.32C18.56 30.31 18.5 30.35 18.44 30.45C18.39 30.55 18.33 30.69 18.27 30.86C18.21 31.03 18.15 31.22 18.09 31.42C18.04 31.63 17.99 31.82 17.95 32.01C17.91 32.2 17.89 32.36 17.87 32.49C17.85 32.63 17.85 32.72 17.86 32.75ZM17.17 33.5C17.05 33.4 16.94 33.36 16.84 33.39C16.73 33.42 16.64 33.5 16.55 33.63C16.49 33.73 16.43 33.88 16.39 34.06C16.35 34.24 16.32 34.43 16.3 34.63C16.28 34.83 16.28 35.03 16.29 35.23C16.31 35.42 16.33 35.59 16.36 35.72C16.4 35.85 16.44 35.94 16.5 35.98C16.56 36.02 16.64 35.99 16.72 35.89C16.83 35.77 16.92 35.6 16.99 35.37C17.06 35.15 17.11 34.94 17.14 34.74C17.14 34.55 17.14 34.35 17.14 34.14C17.14 33.94 17.15 33.72 17.17 33.5ZM20.73 35.64C20.59 35.87 20.42 36.05 20.23 36.18C20.03 36.32 19.84 36.39 19.65 36.4C19.46 36.41 19.28 36.34 19.12 36.18C18.96 36.03 18.84 35.78 18.76 35.42C18.73 35.28 18.71 35.13 18.71 34.95C18.71 34.78 18.72 34.6 18.74 34.41C18.77 34.16 18.83 33.93 18.91 33.71C18.99 33.49 19.11 33.3 19.26 33.16C19.44 32.99 19.63 32.9 19.82 32.89C20.01 32.88 20.18 32.92 20.32 32.99C20.48 33.07 20.57 33.18 20.61 33.32C20.65 33.47 20.65 33.62 20.61 33.77C20.57 33.92 20.5 34.07 20.4 34.21C20.31 34.34 20.2 34.44 20.08 34.51C19.92 34.61 19.66 34.7 19.31 34.79C19.27 35.15 19.28 35.45 19.35 35.69C19.42 35.92 19.52 36.07 19.66 36.13C19.81 36.2 19.96 36.17 20.12 36.04C20.27 35.91 20.42 35.74 20.56 35.53C20.7 35.33 20.82 35.12 20.93 34.9C21.03 34.68 21.11 34.52 21.16 34.41C21.17 34.38 21.19 34.35 21.23 34.32C21.26 34.29 21.29 34.28 21.32 34.28C21.35 34.28 21.37 34.3 21.38 34.33C21.39 34.36 21.38 34.41 21.36 34.49C21.21 34.78 21.09 35.02 21 35.19C20.91 35.37 20.82 35.52 20.73 35.64ZM19.35 34.58C19.49 34.52 19.61 34.45 19.72 34.37C19.82 34.29 19.92 34.21 20.02 34.13C20.09 34.05 20.16 33.95 20.21 33.82C20.26 33.68 20.29 33.56 20.3 33.45C20.3 33.34 20.28 33.25 20.23 33.18C20.18 33.12 20.1 33.11 19.99 33.16C19.9 33.19 19.82 33.26 19.75 33.35C19.68 33.44 19.62 33.55 19.57 33.68C19.52 33.81 19.47 33.95 19.44 34.11C19.41 34.27 19.38 34.42 19.35 34.58Z" fill="#373435"/>
<path d="M7.97001 13.28C7.94001 13.3 7.93001 14.67 7.96001 17.38C7.99001 20.1 8.00001 21.64 8.00001 22.02C8.00001 24.25 7.36001 25.96 6.07001 27.15C5.15001 28 4.13001 28.41 2.99001 28.38C1.94001 28.36 1.15001 27.98 0.620013 27.24C0.320013 26.82 0.150013 26.32 0.110013 25.75C0.0300129 24.66 0.300013 23.64 0.930013 22.69C1.56001 21.74 2.37001 21.11 3.35001 20.79C3.56001 20.72 3.69001 20.75 3.73001 20.88C3.74001 20.96 3.72001 21.01 3.67001 21.04C2.71001 21.28 1.92001 21.86 1.30001 22.76C0.670013 23.66 0.380013 24.65 0.430013 25.74C0.470013 26.65 0.830013 27.29 1.52001 27.67C2.20001 28.04 2.95001 28.01 3.75001 27.59C4.80001 27.02 5.55001 25.93 5.99001 24.32C6.22001 23.45 6.35001 22.48 6.37001 21.39C6.38001 20.84 6.38001 19.44 6.36001 17.19C6.35001 14.94 6.37001 13.49 6.42001 12.85C5.57001 12.44 4.82001 12.52 4.19001 13.1C3.78001 13.47 3.52001 13.97 3.41001 14.61C3.31001 15.24 3.35001 15.82 3.53001 16.34C3.65001 16.82 3.87001 17.32 4.19001 17.85C4.26001 17.94 4.25001 18.02 4.14001 18.08C4.05001 18.14 3.97001 18.12 3.92001 18.04C3.52001 17.38 3.26001 16.75 3.13001 16.12C2.99001 15.47 3.01001 14.83 3.17001 14.19C3.33001 13.56 3.66001 13.07 4.14001 12.71C4.67001 12.33 5.34001 12.21 6.16001 12.34C6.98001 12.48 7.58001 12.79 7.97001 13.28ZM8.54001 19.16C8.58001 19.09 8.72001 19.05 8.97001 19.06C9.21001 19.06 9.47001 19.14 9.74001 19.28C10.01 19.42 10.15 19.58 10.15 19.76C10.14 20.08 10.14 20.47 10.14 20.95C10.15 21.42 10.14 22.24 10.1 23.41C10.48 21.15 10.9 19.79 11.34 19.35C11.51 19.18 11.75 19.09 12.07 19.09C12.39 19.08 12.69 19.18 12.96 19.39C13.23 19.59 13.35 19.89 13.33 20.27C13.3 20.82 13.28 21.26 13.27 21.6C13.26 21.95 13.25 22.33 13.24 22.75C13.23 23.17 13.23 23.5 13.24 23.74C13.26 23.98 13.28 24.2 13.31 24.43C13.35 24.65 13.4 24.8 13.46 24.89C13.53 24.97 13.62 25 13.71 24.96C13.88 24.92 14.08 24.67 14.31 24.22C14.54 23.77 14.73 23.31 14.86 22.85H15.15C15.05 23.21 14.91 23.62 14.72 24.06C14.53 24.51 14.28 24.94 13.96 25.38C13.65 25.81 13.34 26.03 13.05 26.04C12.81 26.05 12.61 25.99 12.44 25.85C12.28 25.71 12.14 25.5 12.05 25.22C11.95 24.93 11.88 24.62 11.82 24.28C11.76 23.93 11.73 23.52 11.73 23.03C11.72 22.55 11.73 22.08 11.74 21.64C11.76 21.19 11.79 20.67 11.83 20.08C11.84 19.88 11.78 19.78 11.64 19.78C11.42 19.78 11.2 20.09 10.99 20.71C10.96 20.83 10.93 20.95 10.9 21.07C10.72 21.73 10.55 22.56 10.4 23.57C10.24 24.58 10.12 25.31 10.03 25.74V25.75C9.98001 25.94 9.85001 26.04 9.64001 26.03C9.42001 26.03 9.19001 25.96 8.93001 25.83C8.68001 25.71 8.55001 25.59 8.54001 25.47C8.55001 25.21 8.55001 24.16 8.53001 22.34C8.51001 20.51 8.52001 19.46 8.54001 19.16ZM17.44 22.51C18.14 22.24 18.65 22.06 18.99 21.98C19.01 22.01 19.03 22.05 19.04 22.09C19.05 22.14 19.06 22.18 19.07 22.21C18.82 22.25 18.31 22.43 17.55 22.73C17.72 23.13 17.81 23.6 17.81 24.13C17.71 25.05 17.31 25.69 16.59 26.02C16.04 26.28 15.54 26.28 15.09 26.02C14.69 25.8 14.51 25.45 14.55 24.96C14.58 24.57 14.72 24.25 14.98 23.98C15.24 23.72 15.59 23.46 16.03 23.19C16 23.12 15.79 22.71 15.4 21.96C15.38 22.11 15.28 22.48 15.09 23.07H14.8C14.99 22.47 15.13 21.97 15.21 21.58C15.05 21.32 14.93 21.03 14.84 20.71C14.75 20.39 14.74 20.06 14.82 19.71C14.89 19.35 15.09 19.1 15.4 18.95C15.78 18.78 16.08 18.84 16.31 19.14C16.54 19.45 16.5 19.87 16.21 20.39C16.18 20.44 16.23 20.56 16.38 20.77C16.52 20.98 16.7 21.26 16.94 21.6C17.17 21.95 17.34 22.25 17.44 22.51ZM14.83 25.31C14.91 25.62 15.1 25.76 15.4 25.74C15.74 25.71 15.99 25.5 16.16 25.11C16.36 24.65 16.35 24.09 16.11 23.43C15.1 24.03 14.67 24.66 14.83 25.31ZM18.58 17.06C18.62 16.98 18.76 16.95 18.99 16.96C19.22 16.97 19.48 17.05 19.76 17.18C20.04 17.32 20.18 17.48 20.18 17.66V18.35L20.99 18.42C21.02 18.43 21.03 18.48 21.03 18.57C21.03 18.66 21 18.75 20.95 18.84C20.89 18.94 20.82 18.98 20.73 18.97H20.18C20.18 19.36 20.18 19.87 20.17 20.5C20.17 21.12 20.16 21.48 20.16 21.56C20.16 21.71 20.16 21.9 20.15 22.13C20.15 22.35 20.15 22.54 20.15 22.7C20.15 22.86 20.15 23.05 20.15 23.26C20.15 23.47 20.15 23.65 20.16 23.79C20.17 23.94 20.18 24.09 20.19 24.25C20.2 24.41 20.23 24.54 20.26 24.64C20.29 24.74 20.32 24.83 20.36 24.92C20.4 25 20.44 25.06 20.5 25.08C20.56 25.11 20.63 25.11 20.7 25.09C20.86 25.08 21.05 24.82 21.29 24.32C21.52 23.81 21.7 23.3 21.84 22.8H22.12C21.67 24.31 21.21 25.28 20.75 25.71C20.6 25.88 20.41 25.99 20.18 26.04C19.84 26.12 19.57 26.1 19.36 25.98C19.11 25.77 18.93 25.49 18.8 25.15C18.68 24.8 18.61 24.44 18.6 24.07C18.59 23.7 18.58 23.29 18.57 22.85C18.57 22.4 18.57 21.97 18.57 21.55V19C18.08 19.02 17.78 19.03 17.66 19.02C17.54 19.01 17.53 18.88 17.63 18.62C17.75 18.31 17.91 18.15 18.12 18.16C18.16 18.16 18.21 18.17 18.26 18.2L18.57 18.23C18.57 18.06 18.57 17.84 18.57 17.56C18.58 17.29 18.58 17.12 18.58 17.06ZM21.63 19.13C21.68 19.05 21.81 19.02 22.04 19.03C22.28 19.04 22.53 19.12 22.81 19.26C23.09 19.39 23.23 19.55 23.23 19.73C23.24 19.97 23.24 20.73 23.23 21.99C23.22 23.26 23.21 23.97 23.21 24.14C23.21 24.54 23.25 24.8 23.33 24.92C23.4 25.05 23.51 25.1 23.66 25.09C23.82 25.08 24.01 24.82 24.24 24.32C24.47 23.81 24.66 23.3 24.8 22.8H25.08C24.68 24.13 24.29 25.02 23.9 25.49C23.58 25.88 23.24 26.07 22.88 26.07C22.71 26.07 22.56 26.04 22.42 25.98C22.29 25.93 22.18 25.86 22.09 25.79C22.01 25.71 21.93 25.6 21.87 25.45C21.81 25.31 21.76 25.18 21.74 25.08C21.71 24.98 21.69 24.83 21.67 24.63C21.66 24.43 21.65 24.29 21.64 24.2C21.64 24.12 21.64 23.98 21.64 23.77C21.65 23.56 21.65 23.44 21.65 23.4C21.65 23.38 21.64 22.78 21.63 21.6C21.61 20.43 21.61 19.6 21.63 19.13ZM23.21 18.61C23.16 18.67 23 18.7 22.72 18.71C22.44 18.71 22.17 18.62 21.91 18.43C21.65 18.24 21.59 18 21.71 17.71C21.89 17.27 22.15 17.05 22.49 17.03C22.81 17 23.04 17.21 23.17 17.64C23.24 17.91 23.26 18.23 23.21 18.61ZM24.59 17.06C24.63 16.98 24.77 16.95 25 16.96C25.23 16.97 25.49 17.05 25.77 17.18C26.05 17.32 26.19 17.48 26.19 17.66V18.35L26.99 18.42C27.03 18.43 27.04 18.48 27.04 18.57C27.04 18.66 27.01 18.75 26.96 18.84C26.9 18.94 26.83 18.98 26.74 18.97H26.19C26.19 19.36 26.19 19.87 26.18 20.5C26.18 21.12 26.17 21.48 26.17 21.56C26.17 21.71 26.17 21.9 26.16 22.13C26.16 22.35 26.16 22.54 26.16 22.7C26.16 22.86 26.16 23.05 26.16 23.26C26.16 23.47 26.16 23.65 26.17 23.79C26.18 23.94 26.19 24.09 26.2 24.25C26.21 24.41 26.24 24.54 26.27 24.64C26.3 24.74 26.33 24.83 26.37 24.92C26.41 25 26.45 25.06 26.51 25.08C26.57 25.11 26.64 25.11 26.71 25.09C26.87 25.08 27.06 24.82 27.3 24.32C27.53 23.81 27.71 23.3 27.85 22.8H28.13C27.68 24.31 27.22 25.28 26.76 25.71C26.61 25.88 26.42 25.99 26.19 26.04C25.85 26.12 25.58 26.1 25.37 25.98C25.12 25.77 24.94 25.49 24.81 25.15C24.69 24.8 24.62 24.44 24.61 24.07C24.6 23.7 24.59 23.29 24.58 22.85C24.58 22.4 24.58 21.97 24.58 21.55V19C24.09 19.02 23.79 19.03 23.67 19.02C23.55 19.01 23.54 18.88 23.64 18.62C23.76 18.31 23.92 18.15 24.13 18.16C24.17 18.16 24.22 18.17 24.27 18.2L24.58 18.23C24.58 18.06 24.58 17.84 24.58 17.56C24.59 17.29 24.59 17.12 24.59 17.06ZM30.81 19.13C30.85 19.05 30.99 19.02 31.22 19.03C31.45 19.04 31.71 19.12 31.98 19.26C32.26 19.39 32.4 19.55 32.4 19.73C32.41 20 32.42 20.65 32.41 21.68C32.41 22.71 32.4 23.48 32.4 23.98C32.4 24.74 32.58 25.11 32.94 25.09C33.1 25.08 33.29 24.82 33.53 24.32C33.76 23.81 33.94 23.3 34.08 22.8H34.36C34 24.03 33.64 24.89 33.3 25.36C33.08 25.68 32.84 25.89 32.58 25.99C32.12 26.17 31.75 26.13 31.45 25.87C31.15 25.6 30.97 25.17 30.92 24.58C30.9 24.43 30.89 24.17 30.89 23.81C30.48 25.29 29.94 26.03 29.24 26.04C28.99 26.04 28.78 26 28.61 25.92C28.44 25.84 28.29 25.7 28.16 25.49C28.03 25.29 27.93 25.02 27.86 24.68C27.79 24.34 27.73 23.92 27.69 23.41C27.65 22.9 27.63 22.29 27.63 21.58C27.63 20.87 27.63 20.06 27.64 19.13C27.69 19.05 27.82 19.02 28.05 19.03C28.29 19.04 28.54 19.12 28.82 19.26C29.1 19.39 29.24 19.55 29.24 19.73C29.25 20.07 29.24 20.83 29.21 22.01C29.18 23.19 29.19 24.06 29.26 24.62C29.32 25.17 29.47 25.43 29.7 25.39C29.9 25.35 30.11 25.08 30.34 24.59C30.57 24.1 30.73 23.55 30.82 22.94C30.78 22.05 30.77 20.78 30.81 19.13ZM33.87 17.06C33.92 16.98 34.05 16.95 34.29 16.96C34.52 16.97 34.77 17.05 35.05 17.18C35.33 17.32 35.47 17.48 35.47 17.66V18.35L36.28 18.42C36.31 18.43 36.33 18.48 36.33 18.57C36.33 18.66 36.3 18.75 36.24 18.84C36.18 18.94 36.11 18.98 36.03 18.97H35.47C35.47 19.36 35.47 19.87 35.46 20.5C35.46 21.12 35.46 21.48 35.46 21.56C35.46 21.71 35.45 21.9 35.45 22.13C35.44 22.35 35.44 22.54 35.44 22.7C35.44 22.86 35.44 23.05 35.44 23.26C35.44 23.47 35.45 23.65 35.46 23.79C35.47 23.94 35.48 24.09 35.49 24.25C35.5 24.41 35.52 24.54 35.55 24.64C35.58 24.74 35.62 24.83 35.65 24.92C35.69 25 35.74 25.06 35.8 25.08C35.85 25.11 35.92 25.11 35.99 25.09C36.15 25.08 36.35 24.82 36.58 24.32C36.81 23.81 37 23.3 37.13 22.8H37.42C36.96 24.31 36.5 25.28 36.04 25.71C35.89 25.88 35.7 25.99 35.47 26.04C35.13 26.12 34.86 26.1 34.65 25.98C34.41 25.77 34.22 25.49 34.1 25.15C33.97 24.8 33.9 24.44 33.89 24.07C33.88 23.7 33.87 23.29 33.87 22.85C33.86 22.4 33.86 21.97 33.86 21.55V19C33.37 19.02 33.07 19.03 32.96 19.02C32.83 19.01 32.82 18.88 32.93 18.62C33.04 18.31 33.2 18.15 33.42 18.16C33.46 18.16 33.51 18.17 33.56 18.2L33.86 18.23C33.86 18.06 33.86 17.84 33.87 17.56C33.87 17.29 33.87 17.12 33.87 17.06ZM39.81 20.84C39.82 20.76 39.82 20.67 39.82 20.55C39.59 20.76 39.52 21.18 39.62 21.79C39.71 22.41 39.93 22.79 40.28 22.92C40.31 22.11 40.26 21.4 40.14 20.79C39.98 20.91 39.87 20.94 39.82 20.88C39.8 20.87 39.79 20.86 39.81 20.84ZM39.74 20.03C39.71 19.8 39.6 19.67 39.41 19.63C39.19 19.6 38.99 19.8 38.82 20.22C38.62 20.76 38.52 21.57 38.52 22.66C38.52 24.04 38.73 24.89 39.16 25.22C39.43 25.42 39.68 25.32 39.92 24.92C40.14 24.55 40.26 24.02 40.28 23.34C39.91 23.18 39.64 22.9 39.47 22.49C39.3 22.08 39.24 21.68 39.27 21.27C39.3 20.87 39.39 20.53 39.55 20.27C39.62 20.17 39.68 20.09 39.74 20.03ZM36.96 22.51C36.98 20.86 37.39 19.77 38.18 19.24C38.65 18.92 39.1 18.89 39.54 19.13C39.82 19.3 39.97 19.53 39.99 19.84C40.14 19.79 40.28 19.89 40.4 20.16C40.52 20.42 40.61 20.8 40.67 21.31C40.72 21.82 40.74 22.38 40.72 22.99C41.3 22.92 41.82 22.5 42.29 21.72C42.35 21.64 42.43 21.62 42.51 21.67C42.6 21.73 42.63 21.8 42.57 21.9C42.05 22.76 41.42 23.24 40.71 23.34C40.65 24.48 40.32 25.3 39.69 25.79C39.18 26.19 38.66 26.22 38.13 25.88C37.44 25.44 37.06 24.53 36.97 23.16L36.96 22.51ZM51.76 25.49C52.4 22.26 53 19.86 53.56 18.29C55.02 14.22 57.01 12.19 59.54 12.19C60.13 12.19 60.67 12.33 61.15 12.6C61.64 12.88 62.04 13.26 62.36 13.74C62.67 14.21 62.93 14.7 63.12 15.21C63.32 15.73 63.47 16.27 63.59 16.85C63.61 16.96 63.57 17.02 63.46 17.04C63.36 17.06 63.3 17.01 63.27 16.9C63.17 16.35 63.02 15.84 62.84 15.36C62.65 14.88 62.42 14.41 62.13 13.95C61.84 13.49 61.46 13.13 61 12.87C60.55 12.62 60.04 12.49 59.48 12.5C58.86 12.52 58.27 12.68 57.71 12.98C57.15 13.27 56.65 13.68 56.22 14.2C55.79 14.72 55.39 15.32 55.01 15.99C54.64 16.66 54.31 17.39 54.02 18.2C53.74 19 53.48 19.8 53.24 20.62C53 21.43 52.79 22.26 52.61 23.11C52.44 23.97 52.28 24.76 52.15 25.49C52.02 26.21 51.89 26.91 51.78 27.59C51.75 27.81 51.72 27.97 51.7 28.08C51.7 28.15 51.58 28.16 51.35 28.09C51.12 28.02 50.89 27.91 50.67 27.77C50.45 27.63 50.35 27.51 50.38 27.4C50.36 27.29 50.31 26.91 50.21 26.25C50.12 25.59 50.02 24.95 49.93 24.32C49.83 23.7 49.69 22.92 49.5 21.99C49.31 21.06 49.11 20.21 48.91 19.42C48.71 18.64 48.46 17.83 48.16 16.99C47.85 16.16 47.53 15.46 47.19 14.89C46.85 14.32 46.46 13.85 46.01 13.49C45.56 13.13 45.09 12.96 44.6 12.98C44.55 12.98 44.53 12.96 44.53 12.93C44.54 12.84 44.58 12.79 44.64 12.76C45.72 12.55 46.68 12.72 47.51 13.26C48.35 13.8 49.05 14.66 49.62 15.85C50.18 17.03 50.64 18.42 50.99 20.01C51.33 21.59 51.59 23.42 51.76 25.49ZM55.81 25.58C56.14 25.59 56.49 25.39 56.86 24.96C57.24 24.54 57.53 24.12 57.75 23.71C57.96 23.29 58.1 22.99 58.15 22.8H58.43C57.59 25 56.6 26.08 55.46 26.04C54.78 26.01 54.25 25.73 53.88 25.22C53.5 24.7 53.33 23.81 53.36 22.54C53.37 21.95 53.45 21.41 53.6 20.92C53.75 20.42 54 20 54.36 19.65C54.71 19.3 55.15 19.14 55.65 19.16C56.28 19.19 56.71 19.47 56.93 19.98C57.19 20.57 57.06 21.2 56.57 21.86C56.2 22.36 55.65 22.78 54.92 23.13C54.93 23.28 54.95 23.47 54.96 23.7C54.97 23.93 54.97 24.11 54.98 24.23C54.98 24.35 55 24.49 55.02 24.66C55.04 24.83 55.07 24.96 55.11 25.04C55.14 25.13 55.19 25.22 55.25 25.31C55.31 25.41 55.38 25.47 55.48 25.51C55.57 25.55 55.68 25.57 55.81 25.58ZM55.92 19.67C55.62 19.72 55.38 20.06 55.18 20.7C54.99 21.34 54.9 22.04 54.92 22.81C55.82 22.4 56.4 21.82 56.66 21.07C56.85 20.53 56.81 20.11 56.54 19.84C56.38 19.68 56.17 19.62 55.92 19.67ZM57.93 19.13C57.97 19.05 58.11 19.02 58.34 19.03C58.57 19.04 58.83 19.12 59.11 19.26C59.39 19.39 59.53 19.55 59.53 19.73C59.54 19.97 59.54 20.73 59.53 21.99C59.52 23.26 59.51 23.97 59.51 24.14C59.51 24.54 59.55 24.8 59.62 24.92C59.69 25.05 59.81 25.1 59.95 25.09C60.11 25.08 60.31 24.82 60.54 24.32C60.77 23.81 60.95 23.3 61.09 22.8H61.38C60.98 24.13 60.58 25.02 60.19 25.49C59.87 25.88 59.54 26.07 59.18 26.07C59.01 26.07 58.86 26.04 58.72 25.98C58.58 25.93 58.47 25.86 58.39 25.79C58.3 25.71 58.23 25.6 58.17 25.45C58.1 25.31 58.06 25.18 58.03 25.08C58.01 24.98 57.98 24.83 57.97 24.63C57.95 24.43 57.94 24.29 57.94 24.2C57.93 24.12 57.93 23.98 57.94 23.77C57.94 23.56 57.94 23.44 57.94 23.4C57.94 23.38 57.94 22.78 57.92 21.6C57.9 20.43 57.91 19.6 57.93 19.13ZM59.51 18.61C59.46 18.67 59.29 18.7 59.01 18.71C58.73 18.71 58.46 18.62 58.21 18.43C57.95 18.24 57.88 18 58.01 17.71C58.19 17.27 58.45 17.05 58.78 17.03C59.11 17 59.34 17.21 59.46 17.64C59.54 17.91 59.55 18.23 59.51 18.61ZM64.08 20.12V19.14C64.12 19.07 64.26 19.04 64.49 19.05C64.73 19.06 64.98 19.14 65.25 19.28C65.51 19.42 65.64 19.58 65.63 19.75V25.36C66.02 24.97 66.34 24.6 66.58 24.24C66.82 23.89 67.04 23.42 67.24 22.85H67.53C67.12 24.08 66.48 25.1 65.61 25.9C65.67 27.46 65.56 28.62 65.31 29.39C65.05 30.16 64.64 30.64 64.06 30.83C63.39 31.06 62.83 30.98 62.39 30.59C61.9 30.17 61.8 29.58 62.09 28.81C62.37 28.03 63.03 27.23 64.05 26.4C64.04 26.13 64.04 25.54 64.06 24.63C63.74 25.51 63.2 25.96 62.45 25.99C61.94 26.01 61.55 25.71 61.28 25.09C61.02 24.47 60.89 23.62 60.9 22.54C60.9 22.09 60.93 21.67 60.99 21.28C61.05 20.89 61.14 20.52 61.27 20.16C61.39 19.81 61.57 19.54 61.81 19.34C62.05 19.15 62.33 19.05 62.64 19.07C63.03 19.08 63.35 19.19 63.6 19.42C63.85 19.65 64.01 19.88 64.08 20.12ZM63.15 19.65C62.87 19.66 62.68 20.11 62.55 21C62.43 21.89 62.41 22.81 62.49 23.75C62.57 24.7 62.73 25.24 62.97 25.38C63.16 25.49 63.36 25.39 63.57 25.07C63.77 24.75 63.92 24.41 64.02 24.06C64.02 24.03 64.02 23.55 64.03 22.62C64.03 21.7 64.04 21.06 64.06 20.73C63.8 20 63.5 19.64 63.15 19.65ZM62.97 30.29C63.06 30.31 63.15 30.31 63.24 30.27C63.34 30.23 63.44 30.15 63.55 30.01C63.66 29.87 63.76 29.68 63.84 29.45C63.93 29.21 63.99 28.88 64.04 28.44C64.09 28.01 64.1 27.51 64.06 26.94C63.48 27.43 63.05 27.92 62.76 28.42C62.47 28.92 62.35 29.34 62.4 29.67C62.44 30 62.64 30.21 62.97 30.29ZM70.25 20.11V19.13C70.29 19.05 70.43 19.02 70.67 19.03C70.9 19.04 71.16 19.12 71.43 19.26C71.71 19.41 71.84 19.56 71.83 19.73C71.72 22.13 71.74 23.68 71.88 24.36C71.96 24.82 72.09 25.05 72.26 25.07C72.42 25.06 72.61 24.81 72.84 24.31C73.07 23.81 73.26 23.31 73.4 22.81H73.68C73.27 24.17 72.86 25.09 72.45 25.55C72.14 25.89 71.82 26.06 71.48 26.06C71.12 26.06 70.83 25.89 70.61 25.56C70.39 25.23 70.27 24.88 70.26 24.52C70.2 24.69 70.14 24.83 70.09 24.93C70.04 25.04 69.95 25.18 69.82 25.37C69.69 25.55 69.53 25.7 69.32 25.8C69.12 25.91 68.88 25.97 68.62 25.98C68.1 26 67.71 25.7 67.45 25.07C67.19 24.45 67.06 23.6 67.07 22.53C67.07 22.08 67.1 21.65 67.16 21.26C67.21 20.87 67.31 20.5 67.43 20.15C67.56 19.8 67.74 19.52 67.98 19.33C68.22 19.13 68.49 19.04 68.81 19.05C69.2 19.06 69.52 19.18 69.77 19.41C70.01 19.63 70.17 19.87 70.25 20.11ZM69.32 19.56C69.01 19.57 68.8 20.02 68.67 20.91C68.55 21.8 68.54 22.71 68.64 23.65C68.73 24.59 68.9 25.13 69.14 25.28C69.33 25.4 69.53 25.3 69.73 24.99C69.94 24.68 70.09 24.35 70.19 24.02C70.19 23.98 70.19 23.49 70.19 22.53C70.2 21.57 70.21 20.92 70.23 20.58C69.98 19.89 69.67 19.54 69.32 19.56Z" fill="#1C7541"/>
</svg>
