<svg width="390" height="193" viewBox="0 0 390 193" fill="none" xmlns="http://www.w3.org/2000/svg">
<path fill-rule="evenodd" clip-rule="evenodd" d="M352.114 4.16058C347.384 2.14538 351.268 -0.804225 344.482 0.546875C342.619 6.07358 349.031 1.75577 335.835 8.89807C330.443 11.8167 324.321 6.8629 326.183 16.2417C330.98 17.3084 334.599 16.3699 337.627 20.1008C340.158 23.2208 340.846 27.5035 345.372 24.2574C347.031 19.7373 344.584 15.6708 350.963 15.9743C354.153 21.2236 349.842 21.2246 356.506 24.1072C373.519 31.4648 375.344 29.8442 380.394 11.5253C374.023 11.6174 370.482 10.5587 365.528 8.27509C359.873 5.66799 357.783 5.9655 356.59 0C354.688 2.2376 354.955 2.71928 352.114 4.16058Z" fill="#91BF16"/>
<path fill-rule="evenodd" clip-rule="evenodd" d="M341.938 35.2738C338.598 34.0329 340.704 33.8826 338.561 32.6657C336.664 31.589 336.736 31.5469 334.306 32.5275C332.539 36.5669 336.561 34.2612 332.792 37.9571C323.151 47.41 316.258 40.0754 317.533 50.4949C321.431 51.2761 323.86 50.1824 327.413 51.4975C332.28 53.2983 330.863 55.8734 333.477 57.3938C336.611 59.2167 338.23 56.4553 338.292 53.3895C338.382 48.8613 337.559 47.2307 342.946 47.3099C345.921 51.9612 342.429 52.6213 349.074 54.4642C370.857 60.5057 367.478 53.5858 371.129 38.7333C365.849 39.4705 360.932 38.9306 355.839 37.5394C349.321 35.7586 348.255 36.017 345.745 30.6044C344.429 33.6362 344.388 34.151 341.938 35.2738Z" fill="#91BF16"/>
<path fill-rule="evenodd" clip-rule="evenodd" d="M315.458 87.211C319.525 87.7889 322.027 85.4351 326.926 86.7973C331.629 88.1064 332.129 93.8444 335.717 90.1446C340.032 86.1823 331.572 82.7789 339.394 79.5949C343.567 81.5129 341.063 82.0949 343.659 85.0606C350.108 85.957 359.035 87.4193 363.522 83.9829C367.74 80.7527 365.919 72.1151 366.498 66.345C358.742 68.1248 345.505 70.4354 340.243 62.9255C338.807 65.1551 339.3 65.9333 337.322 67.9685C333.573 67.7612 333.842 63.6607 329.802 66.2698C325.977 68.7407 332.189 68.0877 328.418 72.5578C320.497 81.9486 320.408 79.8363 315.293 80.8198L315.458 87.211Z" fill="#91BF16"/>
<path fill-rule="evenodd" clip-rule="evenodd" d="M335.034 107.214C329.826 114.195 332.106 112.461 326.55 113.672C326.184 122.558 328.363 118.403 333.643 117.698C339.687 116.891 337.95 120.223 343.454 120.709C347.62 116.086 341.857 117.338 344.59 110.856C351.787 110.462 344.311 114.05 352.86 114.527C372.117 115.601 367.989 106.283 366.829 96.8883C362.037 98.6791 348.008 102.554 345.316 96.4746C342.598 100.898 346.41 101.966 340.475 100.363C340.356 100.331 338.863 98.4097 336.88 100.483C334.803 102.654 338.791 102.179 335.034 107.214Z" fill="#91BF16"/>
<path fill-rule="evenodd" clip-rule="evenodd" d="M341.964 129.411C340.422 135.368 345.205 128.627 340.41 138.032C337.451 143.834 339.808 141.734 334.068 144.339L334.837 149.246C339.54 149.821 339.086 146.917 343.842 146.656C348.702 146.389 347.919 149.779 352.03 148.067C355.748 142.704 348.584 144.916 351.803 138.418C357.792 136.8 352.884 141.789 360.039 140.79C366.764 139.849 375.751 137.963 373.586 130.017C373.043 128.017 371.773 122.945 370.771 121.144C366.898 123.259 354.697 129.718 349.403 124.624L347.875 129.306C345.539 129.089 344.515 127.973 341.964 129.411Z" fill="#91BF16"/>
<path fill-rule="evenodd" clip-rule="evenodd" d="M356.326 152.525L350.249 152.797C349.474 157.254 353.361 153.073 349.829 161.903C347.833 166.893 347.521 165.456 344.462 168.412L346.028 172.55C350.563 172.068 349.291 170.17 353.181 169.389C358.775 168.263 356.918 171.514 361.903 169.686C363.21 164.301 358.108 165.899 360.567 160.787C363.294 158.252 365.335 166.524 377.474 158.975C383.382 155.3 379.624 147.783 376.707 142.861C374 144.527 360.201 153.271 356.912 147.765L356.326 152.525Z" fill="#91BF16"/>
<path fill-rule="evenodd" clip-rule="evenodd" d="M373.86 189.407C375.058 184.04 373.448 186.865 372.185 183.811C371.396 181.904 370.707 180.505 373.785 180.705C376.982 180.912 374.144 184.166 383.855 179.808C393.221 175.604 389.769 170.154 385.187 163.348C382.661 165.322 371.912 173.759 367.75 169.423L367.281 174.217C364.768 174.011 364.815 173.512 362.329 174.42C361.787 181.091 363.807 174.002 363.249 179.67C362.381 188.488 354.929 188.944 360.595 192.969C363.373 191.833 363.479 190.265 366.327 189.423C370.027 188.328 369.542 190.247 373.86 189.407Z" fill="#91BF16"/>
<path fill-rule="evenodd" clip-rule="evenodd" d="M104.36 124.306C104.048 125.449 103.65 126.497 103.165 127.449C102.68 128.402 102.213 129.215 101.762 129.891C101.312 130.566 100.914 131.094 100.567 131.476C100.221 131.856 100.048 132.065 100.048 132.099C99.9786 132.757 99.9179 133.545 99.8665 134.463C99.8143 135.38 99.7797 136.307 99.7621 137.242C99.7452 138.177 99.7452 139.07 99.7621 139.918C99.7797 140.766 99.7882 141.433 99.7882 141.918C99.8227 142.472 99.8918 142.974 99.9962 143.425C100.1 143.875 100.23 144.187 100.385 144.36C100.541 144.533 100.749 144.533 101.009 144.36C101.269 144.187 101.572 143.754 101.918 143.061C102.299 142.299 102.637 141.381 102.931 140.307C103.225 139.234 103.529 138.264 103.84 137.398C103.909 137.225 104.065 137.121 104.308 137.086C104.55 137.052 104.637 137.242 104.568 137.658C104.395 138.627 104.101 139.684 103.684 140.827C103.269 141.97 102.888 142.888 102.542 143.581C102.022 144.62 101.486 145.251 100.931 145.476C100.377 145.702 99.8749 145.658 99.4243 145.347C98.9744 145.035 98.5844 144.507 98.2558 143.762C97.9264 143.017 97.7444 142.195 97.7099 141.294C97.6753 141.398 97.5978 141.649 97.4765 142.048C97.3552 142.446 97.1732 142.871 96.9306 143.321C96.688 143.771 96.4024 144.178 96.0738 144.541C95.7445 144.905 95.3552 145.104 94.9045 145.139C94.1084 145.243 93.4328 145.079 92.8784 144.646C92.3241 144.213 91.9003 143.615 91.6055 142.853C91.3115 142.091 91.138 141.234 91.0857 140.282C91.0343 139.329 91.1118 138.368 91.3199 137.398C91.5971 136.151 92.0385 135.043 92.645 134.073C93.2508 133.103 94.0731 132.393 95.1126 131.943C95.4934 131.804 95.961 131.778 96.5153 131.865C97.0696 131.952 97.4158 132.065 97.554 132.203C97.7621 130.575 98.0561 128.99 98.4377 127.449C98.8185 125.908 99.26 124.557 99.7621 123.397C100.264 122.237 100.818 121.344 101.425 120.721C102.031 120.098 102.698 119.873 103.425 120.045C104.117 120.219 104.516 120.713 104.62 121.526C104.724 122.34 104.637 123.267 104.36 124.306ZM100.256 130.644C100.706 130.021 101.087 129.458 101.399 128.956C101.711 128.454 101.988 127.951 102.23 127.449C102.472 126.947 102.698 126.436 102.905 125.916C103.113 125.397 103.321 124.791 103.529 124.098C103.771 123.301 103.893 122.583 103.893 121.942C103.893 121.301 103.719 120.911 103.373 120.773C103.13 120.704 102.888 120.877 102.646 121.293C102.403 121.708 102.16 122.263 101.918 122.955C101.676 123.648 101.442 124.41 101.217 125.241C100.992 126.072 100.802 126.869 100.646 127.631C100.49 128.393 100.377 129.051 100.308 129.605C100.239 130.159 100.221 130.505 100.256 130.644ZM97.4504 133.709C96.9652 133.294 96.5153 133.146 96.0999 133.268C95.6838 133.389 95.303 133.709 94.9567 134.229C94.6796 134.644 94.4546 135.225 94.2811 135.969C94.1084 136.714 93.9871 137.493 93.9172 138.307C93.8481 139.121 93.8397 139.926 93.8919 140.723C93.9433 141.519 94.0385 142.187 94.1775 142.723C94.3157 143.26 94.5061 143.615 94.7487 143.788C94.9913 143.962 95.2853 143.84 95.6324 143.425C96.0823 142.94 96.4462 142.238 96.7233 141.321C96.9997 140.402 97.2078 139.546 97.3467 138.749C97.3467 137.952 97.3467 137.139 97.3467 136.307C97.3467 135.476 97.3813 134.61 97.4504 133.709ZM107.477 134.229C107.2 134.644 106.966 135.225 106.775 135.969C106.585 136.714 106.455 137.493 106.386 138.307C106.317 139.121 106.308 139.926 106.36 140.723C106.412 141.519 106.516 142.187 106.672 142.723C106.828 143.26 107.026 143.615 107.269 143.788C107.512 143.962 107.806 143.84 108.153 143.425C108.464 143.078 108.732 142.62 108.957 142.048C109.183 141.476 109.382 140.87 109.555 140.23C109.728 139.589 109.867 138.974 109.971 138.385C110.074 137.797 110.144 137.329 110.179 136.983C110.283 136.289 110.369 135.761 110.438 135.398C110.507 135.034 110.542 134.749 110.542 134.541C110.542 134.332 110.491 134.177 110.386 134.073C110.283 133.969 110.109 133.813 109.867 133.605C109.486 133.294 109.07 133.199 108.62 133.32C108.17 133.441 107.789 133.744 107.477 134.229ZM107.425 145.139C106.593 145.243 105.901 145.079 105.347 144.646C104.793 144.213 104.369 143.624 104.074 142.879C103.78 142.134 103.615 141.278 103.581 140.307C103.546 139.337 103.632 138.368 103.84 137.398C104.117 136.151 104.585 135 105.243 133.943C105.901 132.887 106.749 132.168 107.789 131.787C108.343 131.579 108.914 131.562 109.503 131.735C110.092 131.909 110.577 132.22 110.958 132.67C111.062 132.567 111.235 132.462 111.477 132.359C111.72 132.255 111.962 132.185 112.205 132.151C112.447 132.116 112.663 132.142 112.854 132.229C113.045 132.316 113.14 132.514 113.14 132.826C113.175 133.415 113.148 134.081 113.062 134.826C112.975 135.571 112.871 136.35 112.75 137.164C112.629 137.979 112.525 138.801 112.438 139.632C112.352 140.463 112.309 141.225 112.309 141.918C112.343 142.472 112.404 142.974 112.491 143.425C112.577 143.875 112.699 144.187 112.854 144.36C113.01 144.533 113.218 144.533 113.478 144.36C113.737 144.187 114.041 143.737 114.387 143.009C114.768 142.282 115.114 141.373 115.426 140.282C115.737 139.19 116.032 138.23 116.309 137.398C116.378 137.156 116.543 137.034 116.802 137.034C117.063 137.034 117.158 137.259 117.089 137.71C116.984 138.195 116.846 138.706 116.672 139.242C116.5 139.779 116.326 140.307 116.153 140.827C115.98 141.347 115.79 141.849 115.582 142.333C115.374 142.818 115.201 143.217 115.063 143.529C114.577 144.602 114.058 145.26 113.503 145.502C112.95 145.745 112.438 145.702 111.971 145.373C111.503 145.044 111.105 144.498 110.776 143.737C110.447 142.974 110.265 142.143 110.23 141.242C110.196 141.347 110.109 141.606 109.971 142.022C109.832 142.438 109.641 142.861 109.4 143.294C109.157 143.727 108.871 144.134 108.542 144.516C108.213 144.897 107.841 145.104 107.425 145.139ZM126.336 144.1C125.816 143.269 125.505 142.282 125.401 141.139C125.297 139.995 125.366 138.844 125.609 137.684C125.851 136.524 126.241 135.423 126.778 134.385C127.314 133.346 127.929 132.497 128.622 131.839C129.384 131.25 130.155 130.93 130.934 130.878C131.713 130.826 132.371 130.956 132.908 131.268C133.445 131.579 133.8 132.029 133.973 132.618C134.146 133.207 134.008 133.83 133.558 134.488C133.489 134.627 133.35 134.696 133.142 134.696C132.934 134.696 132.9 134.541 133.038 134.229C133.211 133.709 133.246 133.259 133.142 132.878C133.038 132.497 132.856 132.22 132.596 132.047C132.337 131.873 132.034 131.814 131.687 131.865C131.341 131.917 131.012 132.134 130.7 132.514C130.25 133.069 129.809 133.856 129.376 134.878C128.943 135.9 128.596 136.965 128.336 138.074C128.077 139.182 127.921 140.264 127.869 141.321C127.817 142.377 127.929 143.217 128.206 143.84C128.414 144.256 128.682 144.55 129.012 144.723C129.341 144.897 129.696 144.974 130.077 144.957C130.457 144.94 130.83 144.845 131.194 144.672C131.558 144.498 131.878 144.273 132.155 143.996C133.125 142.992 133.922 141.987 134.545 140.983C135.168 139.979 135.792 138.783 136.415 137.398C136.45 137.259 136.536 137.139 136.675 137.034C136.814 136.931 136.943 136.878 137.065 136.878C137.186 136.878 137.264 136.939 137.298 137.06C137.333 137.182 137.298 137.398 137.194 137.71C136.675 138.749 136.242 139.606 135.895 140.282C135.549 140.957 135.229 141.529 134.934 141.996C134.64 142.464 134.337 142.888 134.025 143.269C133.713 143.65 133.333 144.065 132.882 144.516C132.293 145.139 131.679 145.546 131.038 145.737C130.397 145.927 129.773 145.979 129.168 145.892C128.562 145.806 128.016 145.598 127.531 145.269C127.046 144.94 126.648 144.55 126.336 144.1ZM141.091 132.514C140.606 132.514 140.208 132.723 139.896 133.138C139.584 133.553 139.394 133.952 139.324 134.332C139.463 134.471 139.55 134.627 139.584 134.8C139.445 135.077 139.359 135.337 139.324 135.58C139.324 135.649 139.333 135.727 139.35 135.813C139.368 135.9 139.376 135.978 139.376 136.048C139.515 136.567 139.723 137.086 140 137.606C140.277 138.16 140.675 138.636 141.195 139.034C141.714 139.433 142.286 139.667 142.91 139.736C142.979 139.39 143.022 138.818 143.039 138.022C143.056 137.225 143.013 136.419 142.91 135.605C142.805 134.792 142.615 134.073 142.338 133.45C142.06 132.826 141.645 132.514 141.091 132.514ZM144.883 139.58C145.264 139.442 145.646 139.234 146.027 138.957C146.685 138.471 147.178 137.918 147.507 137.294C147.836 136.671 148.053 136.255 148.156 136.048L148.884 136.255C148.814 136.532 148.607 137.026 148.261 137.736C147.914 138.446 147.36 139.095 146.598 139.684C146.009 140.1 145.334 140.394 144.572 140.567C144.156 141.849 143.602 142.966 142.91 143.918C142.216 144.871 141.507 145.381 140.779 145.451C139.671 145.589 138.753 145.278 138.026 144.516C137.298 143.754 136.788 142.784 136.493 141.606C136.199 140.428 136.138 139.165 136.312 137.813C136.484 136.463 136.917 135.268 137.61 134.229C137.714 134.091 137.991 134.021 138.441 134.021C138.718 133.156 139.151 132.541 139.74 132.177C140.329 131.814 141.022 131.632 141.819 131.632C142.511 131.666 143.108 131.839 143.611 132.151C144.113 132.462 144.52 133 144.831 133.761C145.178 134.558 145.343 135.467 145.325 136.489C145.308 137.511 145.161 138.541 144.883 139.58ZM142.702 140.619C141.939 140.481 141.29 140.221 140.753 139.84C140.216 139.459 139.706 138.853 139.221 138.022C139.151 137.918 139.108 137.823 139.091 137.736C139.073 137.649 139.03 137.554 138.961 137.45C138.892 138.351 138.892 139.294 138.961 140.282C139.03 141.268 139.168 142.117 139.376 142.827C139.584 143.537 139.835 144.031 140.13 144.308C140.424 144.585 140.762 144.481 141.143 143.996C141.489 143.545 141.792 143.035 142.052 142.464C142.311 141.892 142.528 141.278 142.702 140.619ZM150.182 132.306C150.737 131.891 151.256 131.129 151.741 130.021C152.225 128.912 152.589 127.744 152.832 126.514C153.075 125.285 153.152 124.133 153.065 123.059C152.979 121.986 152.658 121.293 152.105 120.981C151.793 121.12 151.533 121.457 151.326 121.994C151.118 122.531 150.944 123.172 150.806 123.916C150.667 124.661 150.555 125.475 150.468 126.358C150.381 127.242 150.312 128.081 150.26 128.878C150.209 129.675 150.182 130.385 150.182 131.008C150.182 131.632 150.182 132.065 150.182 132.306ZM150.234 145.139C149.438 144.55 148.823 143.555 148.39 142.152C147.957 140.749 147.654 139.165 147.481 137.398C147.343 135.943 147.29 134.445 147.325 132.904C147.359 131.363 147.472 129.882 147.663 128.462C147.853 127.042 148.104 125.761 148.416 124.617C148.728 123.475 149.091 122.574 149.507 121.916C150.096 121.016 150.65 120.453 151.169 120.227C151.689 120.002 152.156 120.011 152.572 120.253C153.369 120.704 153.836 121.466 153.975 122.54C154.113 123.613 154.079 124.773 153.871 126.02C153.767 126.609 153.611 127.258 153.403 127.969C153.196 128.679 152.936 129.371 152.624 130.047C152.312 130.722 151.957 131.363 151.559 131.969C151.161 132.575 150.701 133.086 150.182 133.502C150.009 133.813 149.922 134.48 149.922 135.502C149.922 136.524 149.966 137.623 150.053 138.801C150.139 139.979 150.269 141.069 150.442 142.074C150.615 143.078 150.806 143.737 151.013 144.048C151.395 144.567 151.793 144.758 152.209 144.62C152.624 144.481 152.988 144.169 153.3 143.684C153.508 143.442 153.706 143.078 153.897 142.593C154.087 142.108 154.269 141.58 154.443 141.009C154.615 140.438 154.789 139.84 154.962 139.216C155.135 138.593 155.308 137.987 155.481 137.398C155.69 136.671 155.914 136.385 156.157 136.541C156.4 136.696 156.451 137.034 156.313 137.554C156.036 138.558 155.741 139.658 155.429 140.853C155.118 142.048 154.702 143.096 154.182 143.996C153.733 144.758 153.187 145.295 152.546 145.607C151.905 145.919 151.134 145.763 150.234 145.139ZM167.067 143.009C167.448 142.282 167.795 141.373 168.106 140.282C168.418 139.19 168.712 138.23 168.989 137.398C169.058 137.156 169.223 137.034 169.483 137.034C169.742 137.034 169.838 137.259 169.769 137.71C169.665 138.195 169.534 138.706 169.379 139.242C169.223 139.779 169.05 140.316 168.86 140.853C168.669 141.39 168.479 141.901 168.288 142.385C168.097 142.871 167.933 143.269 167.795 143.581C167.552 144.065 167.301 144.507 167.041 144.905C166.781 145.304 166.357 145.555 165.768 145.658C165.11 145.797 164.539 145.641 164.053 145.191C163.569 144.741 163.179 144.16 162.885 143.45C162.59 142.741 162.4 141.996 162.313 141.217C162.227 140.438 162.235 139.788 162.339 139.268C162.062 140.273 161.759 141.096 161.43 141.736C161.101 142.377 160.85 142.871 160.677 143.217C160.261 144.117 159.802 144.741 159.3 145.087C158.798 145.433 158.304 145.555 157.819 145.451C157.335 145.347 156.893 145.026 156.495 144.49C156.096 143.952 155.811 143.217 155.637 142.282C155.568 141.866 155.499 141.199 155.429 140.282C155.36 139.364 155.378 138.402 155.481 137.398C155.62 136.289 155.862 135.285 156.209 134.385C156.555 133.484 156.919 133 157.3 132.93C157.647 132.861 157.906 132.878 158.079 132.982C158.252 133.086 158.382 133.242 158.469 133.45C158.556 133.658 158.59 133.909 158.572 134.203C158.556 134.498 158.529 134.765 158.495 135.008C158.426 135.736 158.347 136.385 158.261 136.957C158.175 137.528 158.096 138.082 158.027 138.619C157.958 139.155 157.906 139.718 157.871 140.307C157.837 140.896 157.837 141.572 157.871 142.333C157.906 143.199 157.993 143.78 158.131 144.074C158.27 144.369 158.443 144.472 158.651 144.385C158.858 144.299 159.084 144.057 159.326 143.658C159.568 143.26 159.811 142.801 160.053 142.282C160.4 141.485 160.694 140.706 160.936 139.944C161.179 139.182 161.387 138.428 161.56 137.684C161.733 136.939 161.906 136.194 162.08 135.45C162.253 134.705 162.46 133.935 162.703 133.138C162.807 132.792 162.989 132.557 163.249 132.437C163.508 132.316 163.776 132.255 164.053 132.255C164.331 132.255 164.582 132.306 164.807 132.411C165.032 132.514 165.162 132.636 165.197 132.774C165.37 133.848 165.361 135.043 165.17 136.359C164.98 137.675 164.85 138.888 164.781 139.995C164.781 140.1 164.772 140.412 164.755 140.931C164.737 141.45 164.746 141.987 164.781 142.541C164.816 143.096 164.903 143.589 165.041 144.022C165.18 144.455 165.422 144.636 165.768 144.567C166.079 144.567 166.348 144.36 166.573 143.944C166.799 143.529 166.963 143.217 167.067 143.009ZM169.821 132.306C169.959 131.96 170.141 131.701 170.366 131.527C170.591 131.354 170.817 131.285 171.041 131.32C171.266 131.354 171.457 131.466 171.613 131.657C171.769 131.848 171.864 132.134 171.898 132.514C171.829 134.419 171.699 136.263 171.509 138.048C171.319 139.831 171.223 141.658 171.223 143.529C171.223 143.113 171.284 142.498 171.405 141.684C171.527 140.87 171.691 139.979 171.898 139.009C172.106 138.039 172.357 137.052 172.652 136.048C172.946 135.043 173.284 134.125 173.665 133.294C174.046 132.462 174.462 131.787 174.912 131.268C175.362 130.748 175.847 130.488 176.367 130.488C176.921 130.523 177.328 130.739 177.587 131.138C177.848 131.536 178.02 131.978 178.107 132.462C178.194 132.947 178.22 133.441 178.185 133.943C178.15 134.445 178.133 134.818 178.133 135.06C178.029 135.995 177.908 136.957 177.769 137.943C177.631 138.931 177.527 139.892 177.458 140.827C177.458 141.208 177.44 141.71 177.405 142.333C177.371 142.957 177.388 143.511 177.458 143.996C177.561 144.481 177.7 144.697 177.873 144.646C178.046 144.593 178.245 144.377 178.471 143.996C178.696 143.615 178.929 143.13 179.172 142.541C179.415 141.952 179.631 141.381 179.821 140.827C180.012 140.273 180.176 139.797 180.315 139.398C180.453 139 180.523 138.783 180.523 138.749C180.592 138.471 180.661 138.22 180.73 137.995C180.8 137.77 180.869 137.571 180.939 137.398C181.008 137.121 181.198 136.965 181.51 136.931C181.821 136.896 181.926 137.052 181.821 137.398C181.649 137.918 181.432 138.584 181.172 139.398C180.912 140.212 180.644 141.026 180.367 141.84C180.09 142.654 179.795 143.381 179.484 144.022C179.172 144.663 178.878 145.087 178.601 145.295C178.289 145.537 177.977 145.658 177.666 145.658C177.354 145.658 177.068 145.598 176.808 145.476C176.549 145.356 176.314 145.174 176.107 144.931C175.899 144.689 175.743 144.429 175.64 144.152C175.328 143.39 175.137 142.489 175.068 141.45C174.998 140.412 174.998 139.337 175.068 138.23C175.137 137.121 175.267 136.004 175.458 134.878C175.648 133.753 175.847 132.739 176.055 131.839C176.124 131.562 176.142 131.406 176.107 131.371C176.073 131.337 175.934 131.441 175.691 131.683C175.241 132.065 174.834 132.653 174.47 133.45C174.106 134.247 173.786 135.112 173.509 136.048C173.232 136.983 172.99 137.961 172.782 138.983C172.574 140.005 172.383 140.931 172.21 141.762C172.037 142.593 171.881 143.304 171.742 143.893C171.604 144.481 171.483 144.81 171.379 144.879C171.102 145.053 170.859 145.035 170.651 144.828C170.444 144.62 170.262 144.351 170.106 144.022C169.95 143.693 169.821 143.355 169.716 143.009C169.613 142.663 169.544 142.42 169.509 142.282C169.301 141.519 169.154 140.714 169.068 139.866C168.981 139.017 168.955 138.151 168.989 137.268C169.024 136.385 169.119 135.519 169.275 134.67C169.431 133.822 169.613 133.034 169.821 132.306ZM184.575 134.229C184.298 134.644 184.064 135.225 183.874 135.969C183.683 136.714 183.553 137.493 183.484 138.307C183.415 139.121 183.406 139.926 183.458 140.723C183.51 141.519 183.614 142.187 183.77 142.723C183.926 143.26 184.125 143.615 184.367 143.788C184.61 143.962 184.904 143.84 185.251 143.425C185.563 143.078 185.831 142.62 186.056 142.048C186.281 141.476 186.48 140.87 186.654 140.23C186.826 139.589 186.965 138.974 187.069 138.385C187.173 137.797 187.243 137.329 187.277 136.983C187.381 136.289 187.467 135.761 187.537 135.398C187.606 135.034 187.64 134.749 187.64 134.541C187.64 134.332 187.589 134.177 187.484 134.073C187.381 133.969 187.207 133.813 186.965 133.605C186.584 133.294 186.168 133.199 185.719 133.32C185.268 133.441 184.887 133.744 184.575 134.229ZM184.523 145.139C183.692 145.243 182.999 145.079 182.445 144.646C181.891 144.213 181.467 143.624 181.173 142.879C180.878 142.134 180.714 141.278 180.679 140.307C180.644 139.337 180.73 138.368 180.939 137.398C181.216 136.151 181.683 135 182.341 133.943C182.999 132.887 183.848 132.168 184.887 131.787C185.441 131.579 186.013 131.562 186.601 131.735C187.19 131.909 187.675 132.22 188.056 132.67C188.16 132.567 188.333 132.462 188.575 132.359C188.818 132.255 189.061 132.185 189.303 132.151C189.545 132.116 189.761 132.142 189.953 132.229C190.143 132.316 190.238 132.514 190.238 132.826C190.273 133.415 190.247 134.081 190.16 134.826C190.073 135.571 189.97 136.35 189.848 137.164C189.727 137.979 189.623 138.801 189.537 139.632C189.45 140.463 189.407 141.225 189.407 141.918C189.441 142.472 189.502 142.974 189.589 143.425C189.676 143.875 189.797 144.187 189.953 144.36C190.109 144.533 190.316 144.533 190.576 144.36C190.836 144.187 191.139 143.737 191.485 143.009C191.866 142.282 192.212 141.373 192.524 140.282C192.836 139.19 193.13 138.23 193.408 137.398C193.477 137.156 193.641 137.034 193.9 137.034C194.161 137.034 194.256 137.259 194.187 137.71C194.082 138.195 193.944 138.706 193.771 139.242C193.598 139.779 193.424 140.307 193.252 140.827C193.078 141.347 192.888 141.849 192.68 142.333C192.472 142.818 192.299 143.217 192.161 143.529C191.675 144.602 191.156 145.26 190.601 145.502C190.048 145.745 189.537 145.702 189.069 145.373C188.601 145.044 188.203 144.498 187.874 143.737C187.545 142.974 187.363 142.143 187.328 141.242C187.294 141.347 187.207 141.606 187.069 142.022C186.93 142.438 186.74 142.861 186.498 143.294C186.255 143.727 185.97 144.134 185.64 144.516C185.311 144.897 184.939 145.104 184.523 145.139Z" fill="#1B1918"/>
<path fill-rule="evenodd" clip-rule="evenodd" d="M29.7134 144.02C29.609 144.54 29.7648 144.912 30.1809 145.137C30.5963 145.362 30.9771 145.336 31.3233 145.059C31.566 144.817 31.8086 144.488 32.0512 144.072C32.2938 143.656 32.5011 143.215 32.6746 142.747C32.8473 142.279 32.9778 141.83 33.0638 141.397C33.1506 140.964 33.1767 140.591 33.1421 140.279C32.865 140.452 32.5448 140.686 32.1809 140.98C31.817 141.275 31.4623 141.595 31.116 141.942C30.7698 142.288 30.4665 142.643 30.207 143.007C29.9468 143.37 29.7825 143.708 29.7134 144.02ZM38.5448 136.954L38.1294 137.37C37.5751 137.855 36.9433 138.279 36.2331 138.643C35.5229 139.007 34.8911 139.327 34.3368 139.604C34.822 140.643 35.0293 141.699 34.9602 142.773C34.9256 143.569 34.7437 144.297 34.4151 144.955C34.0857 145.613 33.6097 146.081 32.9863 146.358C32.64 146.531 32.2155 146.583 31.7134 146.514C31.2112 146.445 30.726 146.289 30.2585 146.046C29.7909 145.803 29.4101 145.492 29.1153 145.111C28.8212 144.73 28.726 144.279 28.8297 143.76C28.9341 143.31 29.1414 142.868 29.4531 142.435C29.7648 142.002 30.1111 141.595 30.4926 141.215C30.8734 140.834 31.2803 140.487 31.7134 140.175C32.1464 139.863 32.5356 139.586 32.8819 139.344C32.6055 138.998 32.3368 138.721 32.0773 138.513C31.817 138.305 31.5314 138.123 31.2197 137.967C30.908 137.811 30.5878 137.647 30.2585 137.474C29.9299 137.301 29.5921 137.076 29.2458 136.799C28.6569 136.348 28.3452 135.794 28.3107 135.136C28.2761 134.478 28.3452 133.889 28.518 133.37C28.6569 132.919 28.9164 132.452 29.2973 131.967C29.6788 131.482 30.1111 131.093 30.5963 130.798C31.0815 130.504 31.5836 130.348 32.1026 130.33C32.6224 130.313 33.0899 130.512 33.5061 130.928C33.8523 131.274 34.1203 131.681 34.3107 132.149C34.5018 132.617 34.5103 133.006 34.3368 133.318C34.2677 133.421 34.1295 133.499 33.9214 133.552C33.7133 133.603 33.592 133.421 33.5575 133.006C33.5229 132.348 33.3755 131.933 33.116 131.759C32.8565 131.585 32.5617 131.577 32.2331 131.733C31.9038 131.889 31.5921 132.149 31.298 132.512C31.0032 132.876 30.7867 133.265 30.6485 133.681C30.4404 134.305 30.4581 134.833 30.6999 135.266C30.9425 135.699 31.2627 136.106 31.6612 136.487C32.0596 136.868 32.4842 137.24 32.9341 137.604C33.3847 137.967 33.731 138.357 33.9736 138.772C34.389 138.531 34.9256 138.244 35.5836 137.916C36.2415 137.586 36.8304 137.214 37.3502 136.799L37.8177 136.331L38.5448 136.954ZM40.987 133.629C40.7098 134.045 40.4757 134.625 40.2853 135.37C40.0949 136.114 39.9651 136.894 39.896 137.708C39.8269 138.521 39.8177 139.327 39.8699 140.124C39.9221 140.92 40.0258 141.587 40.1816 142.124C40.3375 142.66 40.5363 143.016 40.7789 143.188C41.0216 143.362 41.3156 143.241 41.6626 142.825C41.9743 142.478 42.2423 142.02 42.4672 141.448C42.6929 140.877 42.8918 140.27 43.0653 139.63C43.238 138.989 43.377 138.375 43.4807 137.786C43.5843 137.197 43.6542 136.729 43.6887 136.383C43.7924 135.69 43.8791 135.162 43.9482 134.799C44.0173 134.435 44.0519 134.149 44.0519 133.941C44.0519 133.733 44.0004 133.577 43.896 133.473C43.7924 133.37 43.6189 133.214 43.377 133.006C42.9954 132.694 42.5801 132.599 42.1302 132.72C41.6795 132.842 41.2987 133.145 40.987 133.629ZM40.9348 144.54C40.1033 144.643 39.4108 144.479 38.8565 144.046C38.303 143.613 37.8784 143.024 37.5843 142.279C37.2895 141.535 37.1252 140.678 37.0907 139.708C37.0561 138.738 37.1421 137.768 37.3502 136.799C37.6273 135.552 38.0949 134.4 38.7529 133.344C39.4108 132.287 40.2592 131.569 41.2987 131.188C41.853 130.98 42.4242 130.962 43.0131 131.136C43.602 131.309 44.0864 131.621 44.468 132.071C44.5716 131.967 44.7451 131.863 44.987 131.759C45.2296 131.655 45.4722 131.585 45.7148 131.551C45.9567 131.516 46.1732 131.542 46.3643 131.629C46.5547 131.716 46.6499 131.915 46.6499 132.227C46.6845 132.815 46.6579 133.482 46.5716 134.227C46.4849 134.971 46.3812 135.751 46.2599 136.564C46.1386 137.379 46.035 138.201 45.9482 139.033C45.8614 139.863 45.8185 140.626 45.8185 141.318C45.853 141.873 45.9137 142.375 46.0004 142.825C46.0872 143.275 46.2085 143.587 46.3643 143.76C46.5202 143.933 46.7275 143.933 46.9877 143.76C47.2472 143.587 47.5505 143.137 47.8968 142.409C48.2776 141.682 48.6238 140.773 48.9355 139.682C49.2472 138.59 49.542 137.63 49.8192 136.799C49.8883 136.556 50.0526 136.435 50.3121 136.435C50.5724 136.435 50.6676 136.66 50.5985 137.11C50.4941 137.595 50.3559 138.106 50.1823 138.643C50.0096 139.179 49.8361 139.708 49.6633 140.227C49.4898 140.747 49.2994 141.249 49.0914 141.734C48.8841 142.219 48.7106 142.617 48.5724 142.929C48.0872 144.002 47.5674 144.66 47.0131 144.903C46.4595 145.145 45.9482 145.102 45.4806 144.773C45.0131 144.445 44.6146 143.899 44.286 143.137C43.9567 142.375 43.7747 141.543 43.7402 140.643C43.7056 140.747 43.6189 141.007 43.4807 141.422C43.3417 141.838 43.1513 142.262 42.9095 142.695C42.6668 143.128 42.3812 143.535 42.0519 143.916C41.7225 144.297 41.3509 144.504 40.9348 144.54ZM56.937 120.589C57.0061 120.589 57.1359 120.597 57.3263 120.615C57.5167 120.633 57.6986 120.676 57.8721 120.745C58.0449 120.814 58.1746 120.901 58.2614 121.005C58.3481 121.109 58.3397 121.23 58.2353 121.368C58.0625 121.576 57.8023 121.923 57.456 122.408C57.1098 122.892 56.7466 123.343 56.365 123.758C56.2959 123.862 56.114 123.906 55.8199 123.888C55.5251 123.871 55.2311 123.827 54.9363 123.758C54.6422 123.689 54.3911 123.594 54.1831 123.473C53.9758 123.351 53.9236 123.256 54.0272 123.187L56.937 120.589ZM61.4045 142.409C61.7853 141.682 62.1324 140.773 62.4441 139.682C62.7558 138.59 63.0498 137.63 63.327 136.799C63.3961 136.556 63.5604 136.435 63.8207 136.435C64.0801 136.435 64.1754 136.66 64.1063 137.11C64.0026 137.595 63.8721 138.106 63.7162 138.643C63.5604 139.179 63.3876 139.717 63.1972 140.253C63.0068 140.79 62.8164 141.301 62.6253 141.786C62.4349 142.271 62.2706 142.669 62.1324 142.981C61.8898 143.466 61.6387 143.907 61.3784 144.306C61.1189 144.704 60.6944 144.955 60.1055 145.059C59.4475 145.198 58.8763 145.042 58.3911 144.591C57.9067 144.141 57.5167 143.561 57.2226 142.851C56.9278 142.141 56.7374 141.397 56.6506 140.617C56.5646 139.838 56.5731 139.189 56.6767 138.669C56.3996 139.673 56.0971 140.496 55.7677 141.136C55.4391 141.777 55.1873 142.271 55.0146 142.617C54.5992 143.518 54.1401 144.141 53.638 144.488C53.1359 144.834 52.6422 144.955 52.157 144.851C51.6725 144.747 51.2303 144.427 50.8326 143.89C50.4342 143.353 50.1486 142.617 49.9751 141.682C49.906 141.266 49.8369 140.6 49.767 139.682C49.6979 138.764 49.7156 137.803 49.8192 136.799C49.9574 135.69 50.2 134.686 50.5463 133.785C50.8925 132.885 51.2564 132.4 51.6372 132.33C51.9843 132.261 52.2438 132.279 52.4165 132.382C52.59 132.486 52.7198 132.642 52.8065 132.85C52.8933 133.058 52.9278 133.309 52.9102 133.603C52.8933 133.898 52.8672 134.166 52.8326 134.408C52.7635 135.136 52.6852 135.785 52.5985 136.357C52.5125 136.928 52.4342 137.483 52.3651 138.019C52.296 138.556 52.2438 139.119 52.2092 139.708C52.1747 140.296 52.1747 140.972 52.2092 141.734C52.2438 142.6 52.3305 143.18 52.4687 143.474C52.6077 143.769 52.7804 143.873 52.9885 143.786C53.1958 143.7 53.4215 143.457 53.6641 143.059C53.9059 142.66 54.1485 142.201 54.3911 141.682C54.7374 140.885 55.0315 140.106 55.2741 139.344C55.5167 138.582 55.7247 137.829 55.8975 137.084C56.071 136.339 56.2437 135.595 56.4172 134.85C56.5908 134.105 56.798 133.335 57.0407 132.538C57.1443 132.192 57.3263 131.958 57.5865 131.837C57.846 131.716 58.114 131.655 58.3911 131.655C58.6683 131.655 58.9193 131.707 59.1451 131.811C59.37 131.915 59.4998 132.036 59.5343 132.174C59.7078 133.248 59.6986 134.443 59.5082 135.76C59.3178 137.076 59.188 138.288 59.119 139.396C59.119 139.5 59.11 139.812 59.0928 140.331C59.0752 140.851 59.0848 141.387 59.119 141.942C59.1535 142.496 59.2403 142.99 59.3785 143.423C59.5174 143.856 59.7593 144.037 60.1055 143.968C60.4172 143.968 60.6859 143.76 60.9109 143.344C61.1366 142.929 61.3009 142.617 61.4045 142.409ZM76.3672 123.706C76.0555 124.849 75.657 125.897 75.1726 126.849C74.6874 127.802 74.2198 128.616 73.7692 129.291C73.3192 129.966 72.9208 130.495 72.5745 130.876C72.2283 131.257 72.0548 131.465 72.0548 131.499C71.9857 132.157 71.925 132.945 71.8736 133.863C71.8214 134.781 71.7868 135.708 71.7692 136.643C71.7523 137.578 71.7523 138.47 71.7692 139.318C71.7868 140.167 71.7953 140.834 71.7953 141.318C71.8298 141.873 71.8989 142.375 72.0033 142.825C72.107 143.275 72.2367 143.587 72.3926 143.76C72.5484 143.933 72.7565 143.933 73.016 143.76C73.2763 143.587 73.5787 143.154 73.925 142.461C74.3066 141.699 74.6444 140.782 74.9384 139.708C75.2325 138.634 75.5357 137.665 75.8474 136.799C75.9165 136.625 76.0724 136.521 76.315 136.487C76.5576 136.452 76.6444 136.643 76.5753 137.058C76.4018 138.028 76.1077 139.084 75.6916 140.227C75.2762 141.37 74.8954 142.288 74.5492 142.981C74.0294 144.02 73.4928 144.652 72.9384 144.877C72.3841 145.102 71.882 145.059 71.4314 144.747C70.9815 144.435 70.5914 143.907 70.2628 143.162C69.9335 142.418 69.7515 141.595 69.717 140.695C69.6824 140.798 69.6049 141.05 69.4836 141.448C69.3623 141.846 69.1803 142.271 68.9377 142.721C68.6951 143.172 68.4095 143.578 68.0809 143.942C67.7515 144.306 67.3623 144.504 66.9116 144.54C66.1155 144.643 65.4398 144.479 64.8855 144.046C64.3312 143.613 63.9074 143.016 63.6126 142.253C63.3185 141.492 63.145 140.634 63.0928 139.682C63.0414 138.729 63.1189 137.768 63.327 136.799C63.6041 135.552 64.0456 134.443 64.6521 133.473C65.2579 132.504 66.0801 131.794 67.1197 131.344C67.5005 131.205 67.968 131.179 68.5223 131.265C69.0767 131.352 69.4229 131.465 69.5611 131.603C69.7692 129.976 70.0632 128.391 70.4448 126.849C70.8256 125.308 71.2671 123.957 71.7692 122.797C72.2713 121.637 72.8256 120.745 73.4321 120.121C74.0379 119.498 74.705 119.273 75.4321 119.446C76.1246 119.619 76.5231 120.113 76.6267 120.927C76.7311 121.741 76.6444 122.667 76.3672 123.706ZM72.2628 130.045C72.7135 129.421 73.0943 128.858 73.406 128.356C73.7177 127.854 73.9949 127.351 74.2367 126.849C74.4793 126.347 74.705 125.837 74.9123 125.317C75.1204 124.797 75.3285 124.191 75.5357 123.499C75.7784 122.702 75.8997 121.983 75.8997 121.342C75.8997 120.702 75.7261 120.312 75.3799 120.174C75.1373 120.105 74.8954 120.277 74.6528 120.693C74.4102 121.109 74.1676 121.663 73.925 122.356C73.6832 123.048 73.449 123.81 73.224 124.641C72.9991 125.473 72.8087 126.27 72.6528 127.031C72.497 127.794 72.3841 128.452 72.315 129.006C72.2459 129.559 72.2283 129.906 72.2628 130.045ZM69.4575 133.109C68.9723 132.694 68.5223 132.547 68.107 132.668C67.6909 132.789 67.3101 133.109 66.9638 133.629C66.6867 134.045 66.4617 134.625 66.2882 135.37C66.1155 136.114 65.9941 136.894 65.9243 137.708C65.8552 138.521 65.8467 139.327 65.8989 140.124C65.9504 140.92 66.0456 141.587 66.1846 142.124C66.3227 142.66 66.5131 143.016 66.7558 143.188C66.9984 143.362 67.2924 143.241 67.6394 142.825C68.0893 142.34 68.4533 141.638 68.7304 140.721C69.0068 139.803 69.2149 138.946 69.3538 138.149C69.3538 137.353 69.3538 136.539 69.3538 135.708C69.3538 134.876 69.3884 134.01 69.4575 133.109ZM83.9518 141.786C83.363 142.721 82.6789 143.466 81.8996 144.02C81.1204 144.574 80.3411 144.868 79.5618 144.903C78.7826 144.937 78.0639 144.643 77.406 144.02C76.748 143.397 76.2628 142.358 75.9511 140.903C75.8129 140.349 75.7438 139.717 75.7438 139.007C75.7438 138.296 75.7784 137.56 75.8474 136.799C75.9856 135.794 76.2198 134.842 76.5492 133.941C76.8778 133.04 77.3538 132.296 77.9772 131.707C78.705 131.014 79.4582 130.65 80.2374 130.616C81.0167 130.581 81.7008 130.72 82.2896 131.032C82.9131 131.344 83.3031 131.794 83.4589 132.382C83.6148 132.971 83.6148 133.577 83.4589 134.2C83.3031 134.824 83.0259 135.413 82.6274 135.967C82.229 136.521 81.7875 136.937 81.3023 137.214C80.6443 137.595 79.6056 137.976 78.1852 138.357C78.0125 139.812 78.0639 141.024 78.3411 141.994C78.6183 142.964 79.0336 143.569 79.5879 143.812C80.2113 144.089 80.8348 143.959 81.4582 143.423C82.0816 142.885 82.6789 142.201 83.2509 141.37C83.8221 140.539 84.3242 139.682 84.7572 138.798C85.1902 137.916 85.5103 137.248 85.7184 136.799C85.753 136.66 85.8397 136.539 85.9779 136.435C86.1169 136.331 86.2466 136.279 86.3679 136.279C86.4892 136.279 86.5668 136.339 86.6013 136.461C86.6366 136.582 86.6013 136.799 86.4977 137.11C85.9088 138.322 85.4244 139.284 85.0428 139.994C84.662 140.703 84.2981 141.301 83.9518 141.786ZM78.3411 137.474C78.8954 137.232 79.3891 136.954 79.8221 136.643C80.2551 136.331 80.662 136.002 81.0428 135.655C81.3545 135.344 81.614 134.92 81.8221 134.382C82.0301 133.846 82.1514 133.352 82.186 132.902C82.2205 132.452 82.1338 132.088 81.9257 131.811C81.7184 131.534 81.3891 131.499 80.9392 131.707C80.5576 131.846 80.229 132.105 79.9518 132.486C79.6747 132.868 79.4321 133.318 79.224 133.837C79.0167 134.356 78.8432 134.937 78.705 135.578C78.5661 136.218 78.4447 136.851 78.3411 137.474Z" fill="#1B1918"/>
<path fill-rule="evenodd" clip-rule="evenodd" d="M32.0366 50.8267C31.9076 50.9127 31.8969 56.4781 32.0043 67.5222C32.1118 78.567 32.1648 84.8618 32.1648 86.4058C32.1648 95.456 29.5491 102.404 24.3161 107.251C20.5841 110.726 16.4021 112.399 11.7703 112.27C7.52389 112.184 4.30698 110.64 2.11888 107.637C0.918185 105.922 0.231788 103.906 0.0605885 101.589C-0.282612 97.1289 0.832189 92.9685 3.40569 89.1082C5.97919 85.248 9.26049 82.6737 13.2497 81.387C14.1073 81.0868 14.6225 81.2158 14.7937 81.7732C14.8367 82.0734 14.7507 82.2883 14.5365 82.4165C10.6333 83.4031 7.41639 85.7301 4.88589 89.3977C2.35539 93.0645 1.17529 97.1074 1.34729 101.525C1.51849 105.214 2.99879 107.831 5.78649 109.374C8.57419 110.875 11.5983 110.769 14.8582 109.053C19.1476 106.736 22.1925 102.297 23.9944 95.7347C24.938 92.2176 25.4524 88.2499 25.5383 83.8323C25.5813 81.602 25.5706 75.9076 25.5061 66.7506C25.4416 57.5929 25.5169 51.7058 25.7311 49.0893C22.257 47.4171 19.2328 47.7595 16.6593 50.1188C14.9872 51.6206 13.9361 53.6574 13.5069 56.2309C13.0785 58.8044 13.2282 61.1637 13.9576 63.308C14.472 65.2381 15.3726 67.2757 16.6593 69.4201C16.9603 69.8062 16.8958 70.1279 16.4666 70.3859C16.0804 70.6001 15.7802 70.5356 15.566 70.1924C13.9361 67.5329 12.8636 64.9379 12.3492 62.4074C11.7918 59.748 11.8448 57.1315 12.5096 54.558C13.1745 51.9845 14.4935 49.9691 16.4666 48.5104C18.6109 46.9665 21.3457 46.4728 24.67 47.031C27.9936 47.5883 30.4496 48.8536 32.0366 50.8267ZM34.3529 74.7605C34.5241 74.4603 35.1037 74.3206 36.0903 74.3421C37.0769 74.3636 38.1271 74.6638 39.2427 75.2427C40.3575 75.8223 40.9156 76.4765 40.9156 77.2051C40.8726 78.4918 40.8619 80.1002 40.8834 82.0304C40.9049 83.9612 40.8511 87.3063 40.7221 92.0672C42.2668 82.8457 43.939 77.334 45.7409 75.5329C46.4273 74.8465 47.4246 74.4926 48.7328 74.4711C50.0403 74.4496 51.2418 74.8573 52.3351 75.6934C53.4292 76.5294 53.9328 77.7202 53.8476 79.2642C53.7186 81.4945 53.6326 83.3071 53.5896 84.7006C53.5474 86.0948 53.5044 87.6495 53.4614 89.3654C53.4184 91.0806 53.4292 92.4211 53.4936 93.3861C53.5581 94.3512 53.6541 95.284 53.7831 96.1854C53.9121 97.0859 54.1155 97.7078 54.3942 98.051C54.6729 98.3942 55.0053 98.5017 55.3915 98.3727C56.0779 98.2007 56.8925 97.1934 57.836 95.3485C58.7796 93.5044 59.5305 91.6387 60.0879 89.7516H61.2464C60.8602 91.2526 60.2813 92.904 59.509 94.7051C58.7374 96.507 57.7078 98.2867 56.4211 100.046C55.1343 101.804 53.8906 102.705 52.689 102.747C51.7455 102.79 50.9309 102.533 50.2445 101.976C49.5582 101.418 49.0223 100.56 48.6361 99.4022C48.2499 98.2437 47.939 96.9677 47.7033 95.5742C47.4668 94.18 47.3386 92.4963 47.3171 90.5232C47.2956 88.5501 47.3171 86.6522 47.3816 84.8296C47.4461 83.0062 47.5636 80.8941 47.7355 78.4918C47.7778 77.6772 47.5206 77.2695 46.9632 77.2695C46.0626 77.2695 45.1835 78.5348 44.3252 81.0653C44.197 81.5375 44.068 82.0304 43.939 82.5455C43.2104 85.205 42.5348 88.5931 41.9129 92.7105C41.291 96.8287 40.7866 99.7669 40.4004 101.525V101.589C40.2292 102.362 39.7033 102.737 38.8243 102.716C37.9452 102.694 36.9909 102.426 35.9613 101.911C34.9318 101.397 34.3959 100.903 34.3529 100.432C34.3959 99.3592 34.3851 95.1128 34.3206 87.6925C34.2561 80.2722 34.2669 75.9613 34.3529 74.7605ZM70.5753 88.4004C73.406 87.2848 75.5081 86.5555 76.8808 86.2131C76.9661 86.3413 77.0306 86.5025 77.0735 86.6952C77.1165 86.8879 77.1595 87.0491 77.2025 87.1781C76.173 87.3493 74.1139 88.0572 71.026 89.3009C71.7123 90.9309 72.0555 92.818 72.0555 94.9623C71.6694 98.7374 70.0179 101.311 67.1012 102.684C64.8709 103.712 62.8333 103.712 60.9892 102.684C59.3593 101.782 58.6299 100.346 58.8019 98.3727C58.9301 96.7857 59.5197 95.456 60.5708 94.3835C61.6218 93.3117 63.0475 92.2391 64.8494 91.1666C64.7205 90.8664 63.8629 89.1935 62.2759 86.1486C62.19 86.7489 61.7608 88.2499 60.9892 90.6522H59.8307C60.603 88.2069 61.1604 86.1916 61.5036 84.6046C60.8602 83.5321 60.3566 82.352 59.9919 81.0653C59.6272 79.7785 59.595 78.4173 59.8951 76.9801C60.1953 75.5436 60.9892 74.5248 62.2759 73.9245C63.8199 73.1951 65.0529 73.4523 65.975 74.696C66.8978 75.9398 66.7581 77.6342 65.5573 79.7785C65.4283 79.9505 65.6533 80.4649 66.2329 81.3233C66.8118 82.1808 67.5726 83.3071 68.517 84.7006C69.4605 86.0948 70.1469 87.3278 70.5753 88.4004ZM59.9596 99.7884C60.2598 101.032 61.0322 101.611 62.2759 101.525C63.6487 101.397 64.6775 100.538 65.3638 98.9516C66.1792 97.1074 66.1147 94.8341 65.1711 92.1316C61.0537 94.5769 59.3163 97.1289 59.9596 99.7884ZM75.2079 66.2032C75.3791 65.903 75.9373 65.7748 76.8808 65.8178C77.8244 65.86 78.8647 66.161 80.001 66.7184C81.138 67.2757 81.7061 67.9191 81.7061 68.6485V71.4792L84.9875 71.7364C85.1157 71.7794 85.1802 71.9836 85.1802 72.3475C85.1802 72.7122 85.0627 73.0876 84.8263 73.4738C84.5906 73.86 84.3011 74.0312 83.958 73.9882H81.7061C81.7061 75.5751 81.6954 77.645 81.6739 80.197C81.6524 82.749 81.6417 84.1969 81.6417 84.5401C81.6417 85.1405 81.6309 85.9021 81.6094 86.8242C81.5879 87.7463 81.5772 88.5286 81.5772 89.172C81.5772 89.8153 81.5772 90.5662 81.5772 91.4238C81.5772 92.2821 81.5987 93.0115 81.6417 93.6119C81.6847 94.2122 81.7276 94.8341 81.7706 95.4775C81.8136 96.1209 81.8989 96.646 82.0278 97.0537C82.1568 97.4614 82.2958 97.8368 82.4463 98.18C82.596 98.5224 82.7894 98.7481 83.0251 98.8548C83.2608 98.9623 83.5288 98.9731 83.829 98.8871C84.4723 98.8441 85.2662 97.7938 86.2098 95.7347C87.1533 93.6756 87.9042 91.6172 88.4616 89.5581H89.6193C87.7752 95.6917 85.9096 99.6379 84.0224 101.397C83.4221 102.082 82.6497 102.533 81.7061 102.747C80.3334 103.09 79.2186 103.005 78.3603 102.49C77.3737 101.632 76.6236 100.506 76.1085 99.1128C75.5941 97.7186 75.3154 96.2598 75.2724 94.7374C75.2294 93.2149 75.1972 91.5528 75.1757 89.7516C75.1542 87.9497 75.1434 86.1916 75.1434 84.4756V74.1172C73.1703 74.2032 71.948 74.2246 71.4767 74.1817C70.9615 74.1387 70.9185 73.6028 71.3477 72.5732C71.8191 71.2865 72.4839 70.6646 73.3423 70.7076C73.5135 70.7076 73.707 70.7498 73.9212 70.8358L75.1434 70.9648C75.1434 70.2784 75.1542 69.3778 75.1757 68.2623C75.1972 67.1475 75.2079 66.4612 75.2079 66.2032ZM87.6255 74.6316C87.7967 74.3314 88.3549 74.2032 89.2984 74.2461C90.242 74.2884 91.2823 74.5893 92.4186 75.1467C93.5556 75.7041 94.1237 76.3475 94.1237 77.0768C94.1667 78.0634 94.1667 81.1298 94.1237 86.2768C94.0807 91.4238 94.0592 94.3405 94.0592 95.0268C94.0592 96.6568 94.2097 97.7186 94.5099 98.2115C94.8101 98.7051 95.26 98.9301 95.8611 98.8871C96.5045 98.8441 97.2976 97.7938 98.2412 95.7347C99.1847 93.6756 99.9356 91.6172 100.493 89.5581H101.651C100.022 94.9623 98.4131 98.6084 96.8262 100.495C95.5395 102.082 94.1667 102.876 92.708 102.876C92.0216 102.876 91.3998 102.758 90.8424 102.522C90.285 102.287 89.8343 102.019 89.4911 101.718C89.1479 101.418 88.8478 100.968 88.5906 100.367C88.3334 99.7669 88.1506 99.2625 88.0439 98.8548C87.9364 98.4479 87.8504 97.8368 87.7867 97.0214C87.7222 96.2069 87.6792 95.6272 87.6577 95.284C87.6362 94.9416 87.6362 94.3512 87.6577 93.5151C87.6792 92.679 87.69 92.1746 87.69 92.0034C87.69 91.9174 87.6577 89.4829 87.5933 84.7006C87.5288 79.9183 87.5395 76.5617 87.6255 74.6316ZM94.0592 72.5087C93.845 72.7659 93.1694 72.9057 92.0324 72.9272C90.8961 72.9486 89.8021 72.5732 88.7518 71.8009C87.7007 71.0293 87.4328 70.0427 87.9472 68.8412C88.6765 67.083 89.7268 66.161 91.0996 66.075C92.4293 65.989 93.3514 66.8258 93.8665 68.584C94.1667 69.6565 94.2312 70.9648 94.0592 72.5087ZM99.6569 66.2032C99.8281 65.903 100.386 65.7748 101.33 65.8178C102.273 65.86 103.314 66.161 104.45 66.7184C105.587 67.2757 106.155 67.9191 106.155 68.6485V71.4792L109.436 71.7364C109.565 71.7794 109.629 71.9836 109.629 72.3475C109.629 72.7122 109.512 73.0876 109.275 73.4738C109.04 73.86 108.75 74.0312 108.407 73.9882H106.155C106.155 75.5751 106.144 77.645 106.123 80.197C106.101 82.749 106.091 84.1969 106.091 84.5401C106.091 85.1405 106.08 85.9021 106.058 86.8242C106.037 87.7463 106.026 88.5286 106.026 89.172C106.026 89.8153 106.026 90.5662 106.026 91.4238C106.026 92.2821 106.048 93.0115 106.091 93.6119C106.134 94.2122 106.177 94.8341 106.22 95.4775C106.263 96.1209 106.348 96.646 106.477 97.0537C106.606 97.4614 106.745 97.8368 106.895 98.18C107.045 98.5224 107.238 98.7481 107.474 98.8548C107.71 98.9623 107.978 98.9731 108.278 98.8871C108.921 98.8441 109.715 97.7938 110.659 95.7347C111.602 93.6756 112.353 91.6172 112.911 89.5581H114.068C112.224 95.6917 110.359 99.6379 108.471 101.397C107.871 102.082 107.099 102.533 106.155 102.747C104.782 103.09 103.668 103.005 102.809 102.49C101.823 101.632 101.073 100.506 100.557 99.1128C100.043 97.7186 99.7644 96.2598 99.7214 94.7374C99.6784 93.2149 99.6462 91.5528 99.6247 89.7516C99.6032 87.9497 99.5924 86.1916 99.5924 84.4756V74.1172C97.6193 74.2032 96.397 74.2246 95.9256 74.1817C95.4105 74.1387 95.3675 73.6028 95.7967 72.5732C96.2681 71.2865 96.9329 70.6646 97.7913 70.7076C97.9625 70.7076 98.156 70.7498 98.3702 70.8358L99.5924 70.9648C99.5924 70.2784 99.6032 69.3778 99.6247 68.2623C99.6462 67.1475 99.6569 66.4612 99.6569 66.2032ZM124.942 74.6316C125.114 74.3314 125.671 74.2032 126.615 74.2461C127.558 74.2884 128.599 74.5893 129.735 75.1467C130.872 75.7041 131.44 76.3475 131.44 77.0768C131.483 78.1916 131.494 80.8403 131.472 85.0223C131.451 89.2042 131.44 92.3251 131.44 94.3835C131.44 97.4721 132.17 98.9731 133.627 98.8871C134.271 98.8441 135.065 97.7938 136.008 95.7347C136.952 93.6756 137.703 91.6172 138.26 89.5581H139.418C137.917 94.5769 136.48 98.051 135.108 99.9811C134.207 101.268 133.221 102.125 132.148 102.555C130.304 103.284 128.77 103.112 127.548 102.04C126.325 100.968 125.607 99.2303 125.393 96.8287C125.307 96.1854 125.264 95.1343 125.264 93.6756C123.634 99.6809 121.403 102.705 118.573 102.747C117.543 102.747 116.686 102.587 115.999 102.265C115.313 101.943 114.702 101.365 114.166 100.528C113.629 99.6917 113.221 98.5869 112.943 97.2149C112.664 95.8422 112.439 94.1155 112.267 92.0357C112.096 89.9551 112.01 87.4783 112.01 84.6046C112.01 81.7302 112.031 78.4066 112.074 74.6316C112.246 74.3314 112.804 74.2032 113.747 74.2461C114.691 74.2884 115.731 74.5893 116.867 75.1467C118.005 75.7041 118.573 76.3475 118.573 77.0768C118.616 78.4496 118.573 81.5375 118.444 86.3413C118.315 91.1451 118.379 94.6836 118.637 96.9569C118.894 99.2303 119.495 100.281 120.438 100.11C121.254 99.9381 122.122 98.8548 123.044 96.861C123.966 94.8664 124.62 92.6253 125.006 90.137C124.835 86.5347 124.814 81.3663 124.942 74.6316ZM137.424 66.2032C137.595 65.903 138.153 65.7748 139.097 65.8178C140.04 65.86 141.081 66.161 142.217 66.7184C143.354 67.2757 143.922 67.9191 143.922 68.6485V71.4792L147.204 71.7364C147.332 71.7794 147.396 71.9836 147.396 72.3475C147.396 72.7122 147.279 73.0876 147.042 73.4738C146.807 73.86 146.517 74.0312 146.174 73.9882H143.922C143.922 75.5751 143.911 77.645 143.89 80.197C143.868 82.749 143.858 84.1969 143.858 84.5401C143.858 85.1405 143.847 85.9021 143.825 86.8242C143.804 87.7463 143.793 88.5286 143.793 89.172C143.793 89.8153 143.793 90.5662 143.793 91.4238C143.793 92.2821 143.815 93.0115 143.858 93.6119C143.901 94.2122 143.944 94.8341 143.987 95.4775C144.03 96.1209 144.115 96.646 144.244 97.0537C144.373 97.4614 144.512 97.8368 144.662 98.18C144.812 98.5224 145.006 98.7481 145.241 98.8548C145.477 98.9623 145.745 98.9731 146.045 98.8871C146.688 98.8441 147.482 97.7938 148.426 95.7347C149.369 93.6756 150.12 91.6172 150.678 89.5581H151.835C149.991 95.6917 148.126 99.6379 146.239 101.397C145.638 102.082 144.866 102.533 143.922 102.747C142.549 103.09 141.435 103.005 140.576 102.49C139.59 101.632 138.84 100.506 138.325 99.1128C137.81 97.7186 137.531 96.2598 137.488 94.7374C137.445 93.2149 137.413 91.5528 137.392 89.7516C137.37 87.9497 137.36 86.1916 137.36 84.4756V74.1172C135.386 74.2032 134.164 74.2246 133.693 74.1817C133.178 74.1387 133.135 73.6028 133.564 72.5732C134.035 71.2865 134.7 70.6646 135.558 70.7076C135.73 70.7076 135.923 70.7498 136.137 70.8358L137.36 70.9648C137.36 70.2784 137.37 69.3778 137.392 68.2623C137.413 67.1475 137.424 66.4612 137.424 66.2032ZM161.551 81.5805C161.594 81.2803 161.616 80.8941 161.616 80.4219C160.672 81.2803 160.393 82.9639 160.779 85.4729C161.165 87.982 162.066 89.5152 163.481 90.0733C163.61 86.7704 163.417 83.8753 162.903 81.387C162.259 81.8592 161.83 81.9881 161.616 81.7732C161.53 81.7302 161.508 81.6664 161.551 81.5805ZM161.294 78.2991C161.165 77.3555 160.714 76.8196 159.943 76.6907C159.042 76.5617 158.248 77.3555 157.562 79.0715C156.747 81.2588 156.34 84.5616 156.34 88.9793C156.34 94.5984 157.197 98.0725 158.913 99.4022C160.028 100.217 161.058 99.8091 162.001 98.18C162.903 96.6783 163.395 94.5339 163.481 91.7455C161.98 91.1021 160.886 89.9551 160.2 88.3036C159.514 86.6522 159.235 85.0008 159.364 83.3494C159.492 81.6987 159.878 80.3367 160.522 79.2642C160.779 78.878 161.036 78.5563 161.294 78.2991ZM149.971 88.4004C150.056 81.6664 151.707 77.2265 154.924 75.0822C156.854 73.7955 158.699 73.645 160.457 74.6316C161.616 75.3179 162.238 76.283 162.323 77.5267C162.924 77.3125 163.471 77.7417 163.964 78.8135C164.457 79.886 164.822 81.4515 165.058 83.5106C165.293 85.5697 165.369 87.843 165.283 90.3305C167.642 90.0733 169.765 88.3574 171.653 85.1835C171.91 84.8403 172.21 84.7758 172.553 84.99C172.939 85.205 173.025 85.5052 172.81 85.8914C170.666 89.4084 168.135 91.3601 165.218 91.7455C165.004 96.4211 163.631 99.7454 161.101 101.718C158.999 103.348 156.876 103.477 154.731 102.104C151.943 100.303 150.377 96.6138 150.034 91.0384L149.971 88.4004ZM210.191 100.495C212.807 87.3708 215.252 77.6127 217.525 71.222C223.444 54.6655 231.551 46.3876 241.845 46.3876C244.246 46.3876 246.434 46.9557 248.408 48.092C250.38 49.229 252.01 50.7622 253.297 52.6923C254.583 54.6225 255.624 56.6278 256.418 58.7084C257.211 60.7883 257.843 63.0078 258.315 65.3671C258.401 65.7963 258.229 66.0535 257.801 66.1395C257.372 66.2247 257.115 66.032 257.029 65.5598C256.599 63.3295 256.01 61.2389 255.259 59.2873C254.509 57.3357 253.544 55.4271 252.364 53.5614C251.185 51.695 249.662 50.2371 247.796 49.186C245.93 48.135 243.861 47.6313 241.588 47.6743C239.057 47.7595 236.655 48.4029 234.382 49.6044C232.108 50.8052 230.092 52.4674 228.334 54.5902C226.575 56.7138 224.935 59.1368 223.412 61.8608C221.89 64.584 220.549 67.5759 219.39 70.8358C218.233 74.0957 217.171 77.377 216.206 80.6799C215.241 83.982 214.394 87.3708 213.665 90.8449C212.935 94.319 212.303 97.5366 211.767 100.495C211.231 103.455 210.726 106.307 210.255 109.053C210.126 109.953 210.019 110.618 209.933 111.047C209.933 111.348 209.461 111.358 208.518 111.08C207.574 110.8 206.652 110.372 205.751 109.793C204.85 109.213 204.465 108.71 204.593 108.28C204.507 107.852 204.271 106.297 203.885 103.616C203.5 100.935 203.113 98.3189 202.727 95.7669C202.341 93.2149 201.762 90.0518 200.99 86.2768C200.218 82.5025 199.424 79.0177 198.61 75.8223C197.794 72.627 196.765 69.3348 195.521 65.946C194.277 62.5579 192.969 59.7057 191.596 57.3894C190.224 55.0731 188.627 53.1753 186.803 51.695C184.981 50.2156 183.061 49.5185 181.045 49.6044C180.873 49.6044 180.788 49.54 180.788 49.411C180.831 49.0678 180.981 48.8321 181.238 48.7039C185.613 47.8885 189.506 48.5749 192.915 50.7622C196.326 52.9495 199.178 56.4566 201.473 61.2819C203.768 66.1072 205.622 71.7471 207.038 78.2024C208.453 84.6576 209.504 92.0886 210.191 100.495ZM226.661 100.882C227.991 100.925 229.417 100.089 230.94 98.3727C232.462 96.6568 233.663 94.9524 234.542 93.2579C235.422 91.5635 235.969 90.3305 236.183 89.5581H237.341C233.91 98.5224 229.878 102.919 225.245 102.747C222.49 102.619 220.334 101.504 218.801 99.4022C217.268 97.3001 216.56 93.6756 216.689 88.5286C216.731 86.1271 217.053 83.9183 217.665 81.9021C218.276 79.886 219.295 78.1701 220.752 76.7552C222.2 75.3394 223.959 74.6745 226.018 74.7605C228.591 74.8895 230.328 76.0043 231.229 78.1064C232.258 80.5079 231.765 83.0599 229.749 85.7624C228.248 87.7785 226.018 89.4937 223.058 90.9094C223.101 91.5098 223.144 92.2821 223.187 93.2257C223.229 94.1692 223.262 94.8879 223.283 95.3808C223.305 95.8744 223.358 96.4641 223.444 97.1504C223.529 97.8368 223.648 98.3512 223.798 98.6944C223.948 99.0375 224.141 99.4022 224.377 99.7884C224.613 100.174 224.924 100.442 225.31 100.592C225.696 100.743 226.146 100.839 226.661 100.882ZM227.111 76.8196C225.91 77.0338 224.913 78.4388 224.12 81.0338C223.326 83.6288 222.972 86.4918 223.058 89.6226C226.704 87.9497 229.063 85.5904 230.135 82.5455C230.908 80.3152 230.736 78.6423 229.621 77.5267C228.977 76.8834 228.141 76.6477 227.111 76.8196ZM235.282 74.6316C235.453 74.3314 236.012 74.2032 236.955 74.2461C237.899 74.2884 238.939 74.5893 240.075 75.1467C241.212 75.7041 241.78 76.3475 241.78 77.0768C241.823 78.0634 241.823 81.1298 241.78 86.2768C241.737 91.4238 241.716 94.3405 241.716 95.0268C241.716 96.6568 241.866 97.7186 242.167 98.2115C242.467 98.7051 242.917 98.9301 243.518 98.8871C244.161 98.8441 244.954 97.7938 245.898 95.7347C246.841 93.6756 247.592 91.6172 248.15 89.5581H249.308C247.678 94.9623 246.07 98.6084 244.483 100.495C243.196 102.082 241.823 102.876 240.365 102.876C239.678 102.876 239.056 102.758 238.499 102.522C237.942 102.287 237.491 102.019 237.148 101.718C236.805 101.418 236.504 100.968 236.247 100.367C235.99 99.7669 235.807 99.2625 235.701 98.8548C235.593 98.4479 235.507 97.8368 235.443 97.0214C235.379 96.2069 235.336 95.6272 235.314 95.284C235.293 94.9416 235.293 94.3512 235.314 93.5151C235.336 92.679 235.347 92.1746 235.347 92.0034C235.347 91.9174 235.314 89.4829 235.25 84.7006C235.185 79.9183 235.196 76.5617 235.282 74.6316ZM241.716 72.5087C241.502 72.7659 240.826 72.9057 239.689 72.9272C238.553 72.9486 237.459 72.5732 236.408 71.8009C235.357 71.0293 235.089 70.0427 235.604 68.8412C236.333 67.083 237.383 66.161 238.756 66.075C240.086 65.989 241.008 66.8258 241.523 68.584C241.823 69.6565 241.888 70.9648 241.716 72.5087ZM260.31 78.6853V74.696C260.481 74.3959 261.039 74.2669 261.994 74.3099C262.948 74.3529 263.977 74.6638 265.06 75.2427C266.143 75.8223 266.658 76.455 266.615 77.1413V99.9811C268.202 98.3942 269.488 96.8825 270.475 95.4452C271.462 94.008 272.363 92.1101 273.177 89.7516H274.335C272.663 94.7696 270.068 98.9086 266.55 102.168C266.765 108.517 266.347 113.256 265.307 116.387C264.267 119.519 262.583 121.47 260.246 122.242C257.5 123.186 255.228 122.864 253.426 121.277C251.452 119.561 251.045 117.138 252.203 114.007C253.361 110.832 256.021 107.573 260.181 104.227C260.138 103.112 260.16 100.71 260.246 97.0214C258.916 100.581 256.728 102.426 253.683 102.555C251.581 102.641 249.995 101.418 248.922 98.8871C247.849 96.3566 247.335 92.904 247.378 88.5286C247.378 86.6845 247.496 84.9685 247.732 83.3816C247.968 81.7947 248.343 80.283 248.857 78.8457C249.373 77.4093 250.112 76.2937 251.077 75.5006C252.042 74.7068 253.168 74.3314 254.455 74.3744C256.042 74.4174 257.34 74.9003 258.348 75.8223C259.356 76.7444 260.01 77.6987 260.31 78.6853ZM256.514 76.7552C255.399 76.7981 254.594 78.6315 254.101 82.2561C253.608 85.8806 253.522 89.6119 253.844 93.4506C254.166 97.2894 254.82 99.4875 255.806 100.046C256.578 100.517 257.383 100.099 258.219 98.7911C259.056 97.4829 259.667 96.1209 260.053 94.7051C260.053 94.5769 260.064 92.6253 260.084 88.8503C260.106 85.076 260.16 82.5025 260.246 81.1298C259.173 78.1701 257.929 76.7122 256.514 76.7552ZM255.806 120.055C256.15 120.141 256.514 120.108 256.9 119.958C257.286 119.808 257.704 119.454 258.154 118.896C258.605 118.339 259.002 117.578 259.345 116.613C259.688 115.648 259.956 114.286 260.149 112.527C260.342 110.769 260.375 108.731 260.246 106.415C257.886 108.388 256.117 110.393 254.937 112.43C253.758 114.468 253.265 116.162 253.458 117.513C253.651 118.865 254.434 119.711 255.806 120.055ZM285.402 78.6208V74.6316C285.573 74.3314 286.142 74.2032 287.107 74.2461C288.072 74.2884 289.111 74.5993 290.227 75.179C291.342 75.7578 291.878 76.3905 291.835 77.0768C291.406 86.8564 291.471 93.1397 292.028 95.9274C292.371 97.7723 292.886 98.7374 293.573 98.8233C294.216 98.7804 295.009 97.7401 295.953 95.7024C296.896 93.6648 297.647 91.6387 298.205 89.6226H299.363C297.69 95.1558 296.017 98.8656 294.344 100.753C293.101 102.125 291.792 102.812 290.42 102.812C288.962 102.812 287.782 102.136 286.881 100.785C285.98 99.4345 285.508 98.0295 285.466 96.5715C285.208 97.2571 284.972 97.8153 284.758 98.2437C284.543 98.6729 284.179 99.2625 283.664 100.013C283.15 100.764 282.474 101.354 281.637 101.782C280.801 102.211 279.847 102.447 278.774 102.49C276.673 102.576 275.086 101.354 274.014 98.8233C272.941 96.2921 272.427 92.8395 272.47 88.4649C272.47 86.62 272.587 84.9048 272.824 83.3179C273.059 81.7302 273.435 80.2185 273.949 78.782C274.464 77.3448 275.204 76.2292 276.169 75.4362C277.134 74.6423 278.26 74.2669 279.547 74.3099C281.134 74.3529 282.431 74.8358 283.439 75.7578C284.447 76.6799 285.101 77.6342 285.402 78.6208ZM281.606 76.369C280.361 76.412 279.493 78.2454 279 81.8699C278.506 85.4944 278.453 89.215 278.839 93.0322C279.225 96.8502 279.911 99.059 280.898 99.6594C281.67 100.131 282.474 99.7347 283.31 98.4694C284.147 97.2042 284.758 95.8852 285.144 94.5124C285.144 94.3835 285.155 92.3681 285.176 88.4649C285.197 84.5616 285.251 81.9236 285.337 80.5509C284.308 77.7202 283.064 76.326 281.606 76.369Z" fill="#1C7541"/>
</svg>
